# This file uses centimeters as units for non-parametric coordinates.

mtllib AVATAR-picker-color-closebtn-041217-1.mtl
g default
v 0.314237 1.206420 0.981895
v 0.300902 1.229808 0.978743
v 0.281151 1.248369 0.978324
v 0.256919 1.260285 0.980679
v 0.230577 1.264391 0.985577
v 0.204704 1.260285 0.992540
v 0.181832 1.248369 1.000885
v 0.164200 1.229808 1.009795
v 0.153535 1.206420 1.018399
v 0.150880 1.180495 1.025854
v 0.156495 1.154569 1.031430
v 0.169831 1.131181 1.034582
v 0.189581 1.112621 1.035001
v 0.213814 1.100704 1.032647
v 0.240156 1.096598 1.027748
v 0.266029 1.100704 1.020786
v 0.288901 1.112621 1.012441
v 0.306532 1.131181 1.003531
v 0.317197 1.154569 0.994927
v 0.319852 1.180495 0.987472
v 0.235366 1.180495 1.006663
vt 0.648757 0.946982
vt 0.647670 0.944849
vt 0.645977 0.943155
vt 0.643843 0.942068
vt 0.641478 0.941694
vt 0.639112 0.942068
vt 0.636979 0.943155
vt 0.635285 0.944849
vt 0.634198 0.946982
vt 0.633823 0.949348
vt 0.634198 0.951713
vt 0.635285 0.953847
vt 0.636979 0.955540
vt 0.639112 0.956627
vt 0.641478 0.957002
vt 0.643843 0.956627
vt 0.645977 0.955540
vt 0.647670 0.953847
vt 0.648757 0.951713
vt 0.649132 0.949348
vt 0.641478 0.949042
vn 0.214496 0.249572 0.944301
vn 0.214496 0.249572 0.944301
vn 0.214496 0.249572 0.944301
vn 0.214496 0.249572 0.944301
vn 0.214496 0.249572 0.944301
vn 0.214496 0.249572 0.944301
vn 0.214496 0.249572 0.944301
vn 0.214496 0.249572 0.944301
vn 0.214496 0.249572 0.944301
vn 0.214496 0.249572 0.944301
vn 0.214496 0.249572 0.944301
vn 0.214496 0.249572 0.944301
vn 0.214496 0.249572 0.944301
vn 0.214496 0.249572 0.944301
vn 0.214496 0.249572 0.944301
vn 0.214496 0.249572 0.944301
vn 0.214496 0.249572 0.944301
vn 0.214496 0.249572 0.944301
vn 0.214496 0.249572 0.944301
vn 0.214496 0.249572 0.944301
vn 0.214496 0.249572 0.944301
s 1
g pCylinder12
usemtl pasted__phong3SG
f 1/19/1 2/18/2 21/21/3
f 2/18/2 3/17/4 21/21/3
f 3/17/4 4/16/5 21/21/3
f 4/16/5 5/15/6 21/21/3
f 5/15/6 6/14/7 21/21/3
f 6/14/7 7/13/8 21/21/3
f 7/13/8 8/12/9 21/21/3
f 8/12/9 9/11/10 21/21/3
f 9/11/10 10/10/11 21/21/3
f 10/10/11 11/9/12 21/21/3
f 11/9/12 12/8/13 21/21/3
f 12/8/13 13/7/14 21/21/3
f 13/7/14 14/6/15 21/21/3
f 14/6/15 15/5/16 21/21/3
f 15/5/16 16/4/17 21/21/3
f 16/4/17 17/3/18 21/21/3
f 17/3/18 18/2/19 21/21/3
f 18/2/19 19/1/20 21/21/3
f 19/1/20 20/20/21 21/21/3
f 20/20/21 1/19/1 21/21/3
