# This file uses centimeters as units for non-parametric coordinates.

mtllib AVATAR-base-default-041217-1.mtl
g default
v -1.722194 0.856938 -0.009109
v -1.782354 0.856938 0.044599
v -1.822972 0.856938 0.114268
v -1.840073 0.856938 0.193079
v -1.831984 0.856938 0.273317
v -1.799495 0.856938 0.347128
v -1.745787 0.856938 0.407287
v -1.676118 0.856938 0.447906
v -1.597307 0.856938 0.465007
v -1.517069 0.856938 0.456917
v -1.443258 0.856938 0.424429
v -1.383098 0.856938 0.370721
v -1.342480 0.856938 0.301052
v -1.325379 0.856938 0.222241
v -1.333469 0.856938 0.142003
v -1.365957 0.856938 0.068192
v -1.419665 0.856938 0.008032
v -1.489334 0.856938 -0.032586
v -1.568145 0.856938 -0.049687
v -1.648383 0.856938 -0.041597
v -1.722194 0.960715 -0.009109
v -1.782354 0.960715 0.044599
v -1.822972 0.960715 0.114268
v -1.840073 0.960715 0.193079
v -1.831984 0.960715 0.273317
v -1.799495 0.960715 0.347128
v -1.745787 0.960715 0.407287
v -1.676118 0.960715 0.447906
v -1.597307 0.960715 0.465007
v -1.517069 0.960715 0.456917
v -1.443258 0.960715 0.424429
v -1.383098 0.960715 0.370721
v -1.342480 0.960715 0.301052
v -1.325379 0.960715 0.222241
v -1.333469 0.960715 0.142003
v -1.365957 0.960715 0.068192
v -1.419665 0.960715 0.008032
v -1.489334 0.960715 -0.032586
v -1.568145 0.960715 -0.049687
v -1.648383 0.960715 -0.041597
v -1.582726 0.856938 0.207660
v -1.582726 0.960715 0.207660
vt 0.855100 0.947640
vt 0.850396 0.938407
vt 0.843069 0.931080
vt 0.833836 0.926376
vt 0.823602 0.924755
vt 0.813368 0.926376
vt 0.804135 0.931080
vt 0.796808 0.938407
vt 0.792104 0.947640
vt 0.790483 0.957874
vt 0.792104 0.968108
vt 0.796808 0.977341
vt 0.804135 0.984668
vt 0.813367 0.989372
vt 0.823602 0.990993
vt 0.833836 0.989372
vt 0.843069 0.984668
vt 0.850396 0.977341
vt 0.855100 0.968108
vt 0.856721 0.957874
vt 0.760962 0.909350
vt 0.770283 0.909350
vt 0.779604 0.909350
vt 0.788925 0.909350
vt 0.798246 0.909350
vt 0.807567 0.909350
vt 0.816888 0.909350
vt 0.826209 0.909350
vt 0.835529 0.909350
vt 0.844850 0.909350
vt 0.854171 0.909350
vt 0.863492 0.909350
vt 0.872813 0.909350
vt 0.882134 0.909350
vt 0.891455 0.909350
vt 0.900776 0.909350
vt 0.910097 0.909350
vt 0.919418 0.909350
vt 0.928738 0.909350
vt 0.938059 0.909350
vt 0.947380 0.909350
vt 0.760962 0.920080
vt 0.770283 0.920080
vt 0.779604 0.920080
vt 0.788925 0.920080
vt 0.798246 0.920080
vt 0.807567 0.920080
vt 0.816888 0.920080
vt 0.826209 0.920080
vt 0.835529 0.920080
vt 0.844850 0.920080
vt 0.854171 0.920080
vt 0.863492 0.920080
vt 0.872813 0.920080
vt 0.882134 0.920080
vt 0.891455 0.920080
vt 0.900776 0.920080
vt 0.910097 0.920080
vt 0.919418 0.920080
vt 0.928738 0.920080
vt 0.938059 0.920080
vt 0.947380 0.920080
vt 0.939110 0.947450
vt 0.934227 0.937866
vt 0.926621 0.930260
vt 0.917037 0.925377
vt 0.906413 0.923694
vt 0.895789 0.925377
vt 0.886205 0.930260
vt 0.878599 0.937866
vt 0.873716 0.947450
vt 0.872033 0.958074
vt 0.873716 0.968698
vt 0.878599 0.978282
vt 0.886205 0.985888
vt 0.895789 0.990771
vt 0.906413 0.992454
vt 0.917037 0.990771
vt 0.926621 0.985888
vt 0.934227 0.978282
vt 0.939110 0.968698
vt 0.940793 0.958074
vt 0.823602 0.956549
vt 0.906413 0.956699
vn -0.541078 0.000000 -0.840973
vn -0.774471 0.000000 -0.632609
vn -0.774471 0.000000 -0.632609
vn -0.541078 0.000000 -0.840973
vn -0.932053 0.000000 -0.362322
vn -0.932053 0.000000 -0.362322
vn -0.998399 0.000000 -0.056569
vn -0.998399 0.000000 -0.056569
vn -0.967014 0.000000 0.254722
vn -0.967014 0.000000 0.254722
vn -0.840972 0.000000 0.541079
vn -0.840972 0.000000 0.541079
vn -0.632609 0.000000 0.774471
vn -0.632609 0.000000 0.774471
vn -0.362322 0.000000 0.932053
vn -0.362322 0.000000 0.932053
vn -0.056569 0.000000 0.998399
vn -0.056569 0.000000 0.998399
vn 0.254722 0.000000 0.967014
vn 0.254722 0.000000 0.967014
vn 0.541079 0.000000 0.840972
vn 0.541079 0.000000 0.840972
vn 0.774471 0.000000 0.632609
vn 0.774471 0.000000 0.632609
vn 0.932053 0.000000 0.362322
vn 0.932053 0.000000 0.362322
vn 0.998399 0.000000 0.056569
vn 0.998399 0.000000 0.056569
vn 0.967014 0.000000 -0.254722
vn 0.967014 0.000000 -0.254722
vn 0.840972 0.000000 -0.541079
vn 0.840972 0.000000 -0.541079
vn 0.632609 0.000000 -0.774471
vn 0.632609 0.000000 -0.774471
vn 0.362322 0.000000 -0.932053
vn 0.362322 0.000000 -0.932053
vn 0.056569 0.000000 -0.998399
vn 0.056569 0.000000 -0.998399
vn -0.254721 0.000000 -0.967015
vn -0.254721 0.000000 -0.967015
vn 0.000000 -1.000000 0.000000
vn 0.000000 -1.000000 0.000000
vn 0.000000 -1.000000 0.000000
vn 0.000000 -1.000000 0.000000
vn 0.000000 -1.000000 0.000000
vn 0.000000 -1.000000 0.000000
vn 0.000000 -1.000000 0.000000
vn 0.000000 -1.000000 0.000000
vn 0.000000 -1.000000 0.000000
vn 0.000000 -1.000000 0.000000
vn 0.000000 -1.000000 0.000000
vn 0.000000 -1.000000 0.000000
vn 0.000000 -1.000000 0.000000
vn 0.000000 -1.000000 0.000000
vn 0.000000 -1.000000 0.000000
vn 0.000000 -1.000000 0.000000
vn 0.000000 -1.000000 0.000000
vn 0.000000 -1.000000 0.000000
vn 0.000000 -1.000000 0.000000
vn 0.000000 -1.000000 0.000000
vn 0.000000 -1.000000 0.000000
vn 0.000000 1.000000 -0.000000
vn 0.000000 1.000000 -0.000000
vn 0.000000 1.000000 -0.000000
vn 0.000000 1.000000 -0.000000
vn 0.000000 1.000000 -0.000000
vn 0.000000 1.000000 -0.000000
vn 0.000000 1.000000 -0.000000
vn 0.000000 1.000000 -0.000000
vn 0.000000 1.000000 -0.000000
vn 0.000000 1.000000 -0.000000
vn 0.000000 1.000000 -0.000000
vn 0.000000 1.000000 -0.000000
vn 0.000000 1.000000 -0.000000
vn 0.000000 1.000000 -0.000000
vn 0.000000 1.000000 -0.000000
vn 0.000000 1.000000 -0.000000
vn 0.000000 1.000000 -0.000000
vn 0.000000 1.000000 -0.000000
vn 0.000000 1.000000 -0.000000
vn 0.000000 1.000000 -0.000000
vn 0.000000 1.000000 -0.000000
s 1
g pCylinder2
usemtl pasted__phong3SG
f 1/21/1 2/22/2 22/43/3 21/42/4
f 2/22/2 3/23/5 23/44/6 22/43/3
f 3/23/5 4/24/7 24/45/8 23/44/6
f 4/24/7 5/25/9 25/46/10 24/45/8
f 5/25/9 6/26/11 26/47/12 25/46/10
f 6/26/11 7/27/13 27/48/14 26/47/12
f 7/27/13 8/28/15 28/49/16 27/48/14
f 8/28/15 9/29/17 29/50/18 28/49/16
f 9/29/17 10/30/19 30/51/20 29/50/18
f 10/30/19 11/31/21 31/52/22 30/51/20
f 11/31/21 12/32/23 32/53/24 31/52/22
f 12/32/23 13/33/25 33/54/26 32/53/24
f 13/33/25 14/34/27 34/55/28 33/54/26
f 14/34/27 15/35/29 35/56/30 34/55/28
f 15/35/29 16/36/31 36/57/32 35/56/30
f 16/36/31 17/37/33 37/58/34 36/57/32
f 17/37/33 18/38/35 38/59/36 37/58/34
f 18/38/35 19/39/37 39/60/38 38/59/36
f 19/39/37 20/40/39 40/61/40 39/60/38
f 20/40/39 1/41/1 21/62/4 40/61/40
s 2
f 2/2/41 1/1/42 41/83/43
f 3/3/44 2/2/41 41/83/43
f 4/4/45 3/3/44 41/83/43
f 5/5/46 4/4/45 41/83/43
f 6/6/47 5/5/46 41/83/43
f 7/7/48 6/6/47 41/83/43
f 8/8/49 7/7/48 41/83/43
f 9/9/50 8/8/49 41/83/43
f 10/10/51 9/9/50 41/83/43
f 11/11/52 10/10/51 41/83/43
f 12/12/53 11/11/52 41/83/43
f 13/13/54 12/12/53 41/83/43
f 14/14/55 13/13/54 41/83/43
f 15/15/56 14/14/55 41/83/43
f 16/16/57 15/15/56 41/83/43
f 17/17/58 16/16/57 41/83/43
f 18/18/59 17/17/58 41/83/43
f 19/19/60 18/18/59 41/83/43
f 20/20/61 19/19/60 41/83/43
f 1/1/42 20/20/61 41/83/43
s 3
f 21/81/62 22/80/63 42/84/64
f 22/80/63 23/79/65 42/84/64
f 23/79/65 24/78/66 42/84/64
f 24/78/66 25/77/67 42/84/64
f 25/77/67 26/76/68 42/84/64
f 26/76/68 27/75/69 42/84/64
f 27/75/69 28/74/70 42/84/64
f 28/74/70 29/73/71 42/84/64
f 29/73/71 30/72/72 42/84/64
f 30/72/72 31/71/73 42/84/64
f 31/71/73 32/70/74 42/84/64
f 32/70/74 33/69/75 42/84/64
f 33/69/75 34/68/76 42/84/64
f 34/68/76 35/67/77 42/84/64
f 35/67/77 36/66/78 42/84/64
f 36/66/78 37/65/79 42/84/64
f 37/65/79 38/64/80 42/84/64
f 38/64/80 39/63/81 42/84/64
f 39/63/81 40/82/82 42/84/64
f 40/82/82 21/81/62 42/84/64
g default
v -1.845058 2.139678 0.412680
v -1.793913 2.139746 0.375630
v -1.742767 2.139813 0.338579
v -1.691621 2.139881 0.301529
v -1.640476 2.139948 0.264479
v -1.589330 2.140016 0.227429
v -1.538185 2.140083 0.190378
v -1.487039 2.140151 0.153328
v -1.435893 2.140218 0.116278
v -1.384748 2.140286 0.079227
v -1.333602 2.140353 0.042177
v -1.845101 2.172484 0.412680
v -1.793956 2.172552 0.375630
v -1.742810 2.172619 0.338579
v -1.691665 2.172687 0.301529
v -1.640519 2.172754 0.264479
v -1.589373 2.172822 0.227429
v -1.538228 2.172889 0.190378
v -1.487082 2.172957 0.153328
v -1.435937 2.173024 0.116278
v -1.384791 2.173092 0.079227
v -1.333645 2.173159 0.042177
v -1.845145 2.205291 0.412680
v -1.793999 2.205358 0.375630
v -1.742854 2.205426 0.338579
v -1.691708 2.205493 0.301529
v -1.640562 2.205561 0.264479
v -1.589417 2.205628 0.227429
v -1.538271 2.205696 0.190378
v -1.487126 2.205763 0.153328
v -1.435980 2.205831 0.116278
v -1.384834 2.205898 0.079227
v -1.333689 2.205966 0.042177
v -1.845188 2.238097 0.412680
v -1.794042 2.238164 0.375630
v -1.742897 2.238232 0.338579
v -1.691751 2.238299 0.301529
v -1.640606 2.238367 0.264479
v -1.589460 2.238434 0.227429
v -1.538314 2.238502 0.190378
v -1.487169 2.238569 0.153328
v -1.436023 2.238637 0.116278
v -1.384878 2.238704 0.079227
v -1.333732 2.238772 0.042177
v -1.845231 2.270903 0.412680
v -1.794086 2.270970 0.375630
v -1.742940 2.271038 0.338579
v -1.691795 2.271105 0.301529
v -1.640649 2.271173 0.264479
v -1.589503 2.271240 0.227429
v -1.538358 2.271308 0.190378
v -1.487212 2.271375 0.153328
v -1.436067 2.271443 0.116278
v -1.384921 2.271510 0.079227
v -1.333775 2.271578 0.042177
v -1.845275 2.303709 0.412680
v -1.794129 2.303777 0.375630
v -1.742983 2.303844 0.338579
v -1.691838 2.303912 0.301529
v -1.640692 2.303979 0.264479
v -1.589547 2.304047 0.227429
v -1.538401 2.304114 0.190378
v -1.487255 2.304182 0.153328
v -1.436110 2.304249 0.116278
v -1.384964 2.304317 0.079227
v -1.333819 2.304384 0.042177
v -1.845318 2.336515 0.412680
v -1.794172 2.336583 0.375630
v -1.743027 2.336650 0.338579
v -1.691881 2.336718 0.301529
v -1.640736 2.336785 0.264479
v -1.589590 2.336853 0.227429
v -1.538444 2.336920 0.190378
v -1.487299 2.336988 0.153328
v -1.436153 2.337055 0.116278
v -1.385008 2.337123 0.079227
v -1.333862 2.337190 0.042177
v -1.845361 2.369321 0.412680
v -1.794216 2.369389 0.375630
v -1.743070 2.369456 0.338579
v -1.691924 2.369524 0.301529
v -1.640779 2.369591 0.264479
v -1.589633 2.369659 0.227429
v -1.538488 2.369726 0.190378
v -1.487342 2.369794 0.153328
v -1.436196 2.369861 0.116278
v -1.385051 2.369929 0.079227
v -1.333905 2.369996 0.042177
v -1.845405 2.402128 0.412680
v -1.794259 2.402195 0.375630
v -1.743113 2.402263 0.338579
v -1.691968 2.402330 0.301529
v -1.640822 2.402398 0.264479
v -1.589677 2.402465 0.227429
v -1.538531 2.402533 0.190378
v -1.487385 2.402600 0.153328
v -1.436240 2.402668 0.116278
v -1.385094 2.402735 0.079227
v -1.333949 2.402803 0.042177
v -1.845448 2.434934 0.412680
v -1.794302 2.435001 0.375630
v -1.743157 2.435069 0.338579
v -1.692011 2.435136 0.301529
v -1.640865 2.435204 0.264479
v -1.589720 2.435271 0.227429
v -1.538574 2.435339 0.190378
v -1.487429 2.435406 0.153328
v -1.436283 2.435474 0.116278
v -1.385137 2.435541 0.079227
v -1.333992 2.435609 0.042177
v -1.845491 2.467740 0.412680
v -1.794346 2.467807 0.375630
v -1.743200 2.467875 0.338579
v -1.692054 2.467942 0.301529
v -1.640909 2.468010 0.264479
v -1.589763 2.468077 0.227429
v -1.538618 2.468145 0.190378
v -1.487472 2.468212 0.153328
v -1.436326 2.468280 0.116278
v -1.385181 2.468347 0.079227
v -1.334035 2.468415 0.042177
vt 0.405820 0.953528
vt 0.414423 0.953528
vt 0.423025 0.953528
vt 0.431628 0.953528
vt 0.440231 0.953528
vt 0.448833 0.953528
vt 0.457436 0.953528
vt 0.466038 0.953528
vt 0.474641 0.953528
vt 0.483244 0.953528
vt 0.491846 0.953528
vt 0.405820 0.957483
vt 0.414423 0.957483
vt 0.423025 0.957483
vt 0.431628 0.957483
vt 0.440231 0.957483
vt 0.448833 0.957483
vt 0.457436 0.957483
vt 0.466038 0.957483
vt 0.474641 0.957483
vt 0.483244 0.957483
vt 0.491846 0.957483
vt 0.405820 0.961439
vt 0.414423 0.961439
vt 0.423025 0.961439
vt 0.431628 0.961439
vt 0.440231 0.961439
vt 0.448833 0.961439
vt 0.457436 0.961439
vt 0.466038 0.961439
vt 0.474641 0.961439
vt 0.483244 0.961439
vt 0.491846 0.961439
vt 0.405820 0.965394
vt 0.414423 0.965394
vt 0.423025 0.965394
vt 0.431628 0.965394
vt 0.440231 0.965394
vt 0.448833 0.965394
vt 0.457436 0.965394
vt 0.466038 0.965394
vt 0.474641 0.965394
vt 0.483244 0.965394
vt 0.491846 0.965394
vt 0.405820 0.969349
vt 0.414423 0.969349
vt 0.423025 0.969349
vt 0.431628 0.969349
vt 0.440231 0.969349
vt 0.448833 0.969349
vt 0.457436 0.969349
vt 0.466038 0.969349
vt 0.474641 0.969349
vt 0.483244 0.969349
vt 0.491846 0.969349
vt 0.405820 0.973305
vt 0.414423 0.973305
vt 0.423025 0.973305
vt 0.431628 0.973305
vt 0.440231 0.973305
vt 0.448833 0.973305
vt 0.457436 0.973305
vt 0.466038 0.973305
vt 0.474641 0.973305
vt 0.483244 0.973305
vt 0.491846 0.973305
vt 0.405820 0.977260
vt 0.414423 0.977260
vt 0.423025 0.977260
vt 0.431628 0.977260
vt 0.440231 0.977260
vt 0.448833 0.977260
vt 0.457436 0.977260
vt 0.466038 0.977260
vt 0.474641 0.977260
vt 0.483244 0.977260
vt 0.491846 0.977260
vt 0.405820 0.981215
vt 0.414423 0.981215
vt 0.423025 0.981215
vt 0.431628 0.981215
vt 0.440231 0.981215
vt 0.448833 0.981215
vt 0.457436 0.981215
vt 0.466038 0.981215
vt 0.474641 0.981215
vt 0.483244 0.981215
vt 0.491846 0.981215
vt 0.405820 0.985170
vt 0.414423 0.985170
vt 0.423025 0.985170
vt 0.431628 0.985170
vt 0.440231 0.985170
vt 0.448833 0.985170
vt 0.457436 0.985170
vt 0.466038 0.985170
vt 0.474641 0.985170
vt 0.483244 0.985170
vt 0.491846 0.985170
vt 0.405820 0.989126
vt 0.414423 0.989126
vt 0.423025 0.989126
vt 0.431628 0.989126
vt 0.440231 0.989126
vt 0.448833 0.989126
vt 0.457436 0.989126
vt 0.466038 0.989126
vt 0.474641 0.989126
vt 0.483244 0.989126
vt 0.491846 0.989126
vt 0.405820 0.993081
vt 0.414423 0.993081
vt 0.423025 0.993081
vt 0.431628 0.993081
vt 0.440231 0.993081
vt 0.448833 0.993081
vt 0.457436 0.993081
vt 0.466038 0.993081
vt 0.474641 0.993081
vt 0.483244 0.993081
vt 0.491846 0.993081
vn 0.586653 0.000774 0.809838
vn 0.586653 0.000774 0.809838
vn 0.586653 0.000774 0.809838
vn 0.586653 0.000774 0.809838
vn 0.586653 0.000774 0.809838
vn 0.586653 0.000774 0.809838
vn 0.586653 0.000774 0.809838
vn 0.586653 0.000774 0.809838
vn 0.586653 0.000774 0.809838
vn 0.586653 0.000774 0.809838
vn 0.586653 0.000774 0.809838
vn 0.586653 0.000774 0.809838
vn 0.586653 0.000774 0.809838
vn 0.586653 0.000774 0.809838
vn 0.586653 0.000774 0.809838
vn 0.586653 0.000774 0.809838
vn 0.586653 0.000774 0.809838
vn 0.586653 0.000774 0.809838
vn 0.586653 0.000774 0.809838
vn 0.586653 0.000774 0.809838
vn 0.586653 0.000774 0.809838
vn 0.586653 0.000774 0.809838
vn 0.586653 0.000774 0.809838
vn 0.586653 0.000774 0.809838
vn 0.586653 0.000774 0.809838
vn 0.586653 0.000774 0.809838
vn 0.586653 0.000774 0.809838
vn 0.586653 0.000774 0.809838
vn 0.586653 0.000774 0.809838
vn 0.586653 0.000774 0.809838
vn 0.586653 0.000774 0.809838
vn 0.586653 0.000774 0.809838
vn 0.586653 0.000774 0.809838
vn 0.586653 0.000774 0.809838
vn 0.586653 0.000774 0.809838
vn 0.586653 0.000774 0.809838
vn 0.586653 0.000774 0.809838
vn 0.586653 0.000774 0.809838
vn 0.586653 0.000774 0.809838
vn 0.586653 0.000774 0.809838
vn 0.586653 0.000774 0.809838
vn 0.586653 0.000774 0.809838
vn 0.586653 0.000774 0.809838
vn 0.586653 0.000774 0.809838
vn 0.586653 0.000774 0.809838
vn 0.586653 0.000774 0.809838
vn 0.586653 0.000774 0.809838
vn 0.586653 0.000774 0.809838
vn 0.586653 0.000774 0.809838
vn 0.586653 0.000774 0.809838
vn 0.586653 0.000774 0.809838
vn 0.586653 0.000774 0.809838
vn 0.586653 0.000774 0.809838
vn 0.586653 0.000774 0.809838
vn 0.586653 0.000774 0.809838
vn 0.586653 0.000774 0.809838
vn 0.586653 0.000774 0.809838
vn 0.586653 0.000774 0.809838
vn 0.586653 0.000774 0.809838
vn 0.586653 0.000774 0.809838
vn 0.586653 0.000774 0.809838
vn 0.586653 0.000774 0.809838
vn 0.586653 0.000774 0.809838
vn 0.586653 0.000774 0.809838
vn 0.586653 0.000774 0.809838
vn 0.586653 0.000774 0.809838
vn 0.586653 0.000774 0.809838
vn 0.586653 0.000774 0.809838
vn 0.586653 0.000774 0.809838
vn 0.586653 0.000774 0.809838
vn 0.586653 0.000774 0.809838
vn 0.586653 0.000774 0.809838
vn 0.586653 0.000774 0.809838
vn 0.586653 0.000774 0.809838
vn 0.586653 0.000774 0.809838
vn 0.586653 0.000774 0.809838
vn 0.586653 0.000774 0.809838
vn 0.586653 0.000774 0.809838
vn 0.586653 0.000774 0.809838
vn 0.586653 0.000774 0.809838
vn 0.586653 0.000774 0.809838
vn 0.586653 0.000774 0.809838
vn 0.586653 0.000774 0.809838
vn 0.586653 0.000774 0.809838
vn 0.586653 0.000774 0.809838
vn 0.586653 0.000774 0.809838
vn 0.586653 0.000774 0.809838
vn 0.586653 0.000774 0.809838
vn 0.586653 0.000774 0.809838
vn 0.586653 0.000774 0.809838
vn 0.586653 0.000774 0.809838
vn 0.586653 0.000774 0.809838
vn 0.586653 0.000774 0.809838
vn 0.586653 0.000774 0.809838
vn 0.586653 0.000774 0.809838
vn 0.586653 0.000774 0.809838
vn 0.586653 0.000774 0.809838
vn 0.586653 0.000774 0.809838
vn 0.586653 0.000774 0.809838
vn 0.586653 0.000774 0.809838
vn 0.586653 0.000774 0.809838
vn 0.586653 0.000774 0.809838
vn 0.586653 0.000774 0.809838
vn 0.586653 0.000774 0.809838
vn 0.586653 0.000774 0.809838
vn 0.586653 0.000774 0.809838
vn 0.586653 0.000774 0.809838
vn 0.586653 0.000774 0.809838
vn 0.586653 0.000774 0.809838
vn 0.586653 0.000774 0.809838
vn 0.586653 0.000774 0.809838
vn 0.586653 0.000774 0.809838
vn 0.586653 0.000774 0.809838
vn 0.586653 0.000774 0.809838
vn 0.586653 0.000774 0.809838
vn 0.586653 0.000774 0.809838
vn 0.586653 0.000774 0.809838
vn 0.586653 0.000774 0.809838
vn 0.586653 0.000774 0.809838
vn 0.586653 0.000774 0.809838
vn 0.586653 0.000774 0.809838
s 1
g pPlane1
usemtl pasted__phong3SG
f 43/85/83 44/86/84 55/97/85 54/96/86
f 44/86/84 45/87/87 56/98/88 55/97/85
f 45/87/87 46/88/89 57/99/90 56/98/88
f 46/88/89 47/89/91 58/100/92 57/99/90
f 47/89/91 48/90/93 59/101/94 58/100/92
f 48/90/93 49/91/95 60/102/96 59/101/94
f 49/91/95 50/92/97 61/103/98 60/102/96
f 50/92/97 51/93/99 62/104/100 61/103/98
f 51/93/99 52/94/101 63/105/102 62/104/100
f 52/94/101 53/95/103 64/106/104 63/105/102
f 54/96/86 55/97/85 66/108/105 65/107/106
f 55/97/85 56/98/88 67/109/107 66/108/105
f 56/98/88 57/99/90 68/110/108 67/109/107
f 57/99/90 58/100/92 69/111/109 68/110/108
f 58/100/92 59/101/94 70/112/110 69/111/109
f 59/101/94 60/102/96 71/113/111 70/112/110
f 60/102/96 61/103/98 72/114/112 71/113/111
f 61/103/98 62/104/100 73/115/113 72/114/112
f 62/104/100 63/105/102 74/116/114 73/115/113
f 63/105/102 64/106/104 75/117/115 74/116/114
f 65/107/106 66/108/105 77/119/116 76/118/117
f 66/108/105 67/109/107 78/120/118 77/119/116
f 67/109/107 68/110/108 79/121/119 78/120/118
f 68/110/108 69/111/109 80/122/120 79/121/119
f 69/111/109 70/112/110 81/123/121 80/122/120
f 70/112/110 71/113/111 82/124/122 81/123/121
f 71/113/111 72/114/112 83/125/123 82/124/122
f 72/114/112 73/115/113 84/126/124 83/125/123
f 73/115/113 74/116/114 85/127/125 84/126/124
f 74/116/114 75/117/115 86/128/126 85/127/125
f 76/118/117 77/119/116 88/130/127 87/129/128
f 77/119/116 78/120/118 89/131/129 88/130/127
f 78/120/118 79/121/119 90/132/130 89/131/129
f 79/121/119 80/122/120 91/133/131 90/132/130
f 80/122/120 81/123/121 92/134/132 91/133/131
f 81/123/121 82/124/122 93/135/133 92/134/132
f 82/124/122 83/125/123 94/136/134 93/135/133
f 83/125/123 84/126/124 95/137/135 94/136/134
f 84/126/124 85/127/125 96/138/136 95/137/135
f 85/127/125 86/128/126 97/139/137 96/138/136
f 87/129/128 88/130/127 99/141/138 98/140/139
f 88/130/127 89/131/129 100/142/140 99/141/138
f 89/131/129 90/132/130 101/143/141 100/142/140
f 90/132/130 91/133/131 102/144/142 101/143/141
f 91/133/131 92/134/132 103/145/143 102/144/142
f 92/134/132 93/135/133 104/146/144 103/145/143
f 93/135/133 94/136/134 105/147/145 104/146/144
f 94/136/134 95/137/135 106/148/146 105/147/145
f 95/137/135 96/138/136 107/149/147 106/148/146
f 96/138/136 97/139/137 108/150/148 107/149/147
f 98/140/139 99/141/138 110/152/149 109/151/150
f 99/141/138 100/142/140 111/153/151 110/152/149
f 100/142/140 101/143/141 112/154/152 111/153/151
f 101/143/141 102/144/142 113/155/153 112/154/152
f 102/144/142 103/145/143 114/156/154 113/155/153
f 103/145/143 104/146/144 115/157/155 114/156/154
f 104/146/144 105/147/145 116/158/156 115/157/155
f 105/147/145 106/148/146 117/159/157 116/158/156
f 106/148/146 107/149/147 118/160/158 117/159/157
f 107/149/147 108/150/148 119/161/159 118/160/158
f 109/151/150 110/152/149 121/163/160 120/162/161
f 110/152/149 111/153/151 122/164/162 121/163/160
f 111/153/151 112/154/152 123/165/163 122/164/162
f 112/154/152 113/155/153 124/166/164 123/165/163
f 113/155/153 114/156/154 125/167/165 124/166/164
f 114/156/154 115/157/155 126/168/166 125/167/165
f 115/157/155 116/158/156 127/169/167 126/168/166
f 116/158/156 117/159/157 128/170/168 127/169/167
f 117/159/157 118/160/158 129/171/169 128/170/168
f 118/160/158 119/161/159 130/172/170 129/171/169
f 120/162/161 121/163/160 132/174/171 131/173/172
f 121/163/160 122/164/162 133/175/173 132/174/171
f 122/164/162 123/165/163 134/176/174 133/175/173
f 123/165/163 124/166/164 135/177/175 134/176/174
f 124/166/164 125/167/165 136/178/176 135/177/175
f 125/167/165 126/168/166 137/179/177 136/178/176
f 126/168/166 127/169/167 138/180/178 137/179/177
f 127/169/167 128/170/168 139/181/179 138/180/178
f 128/170/168 129/171/169 140/182/180 139/181/179
f 129/171/169 130/172/170 141/183/181 140/182/180
f 131/173/172 132/174/171 143/185/182 142/184/183
f 132/174/171 133/175/173 144/186/184 143/185/182
f 133/175/173 134/176/174 145/187/185 144/186/184
f 134/176/174 135/177/175 146/188/186 145/187/185
f 135/177/175 136/178/176 147/189/187 146/188/186
f 136/178/176 137/179/177 148/190/188 147/189/187
f 137/179/177 138/180/178 149/191/189 148/190/188
f 138/180/178 139/181/179 150/192/190 149/191/189
f 139/181/179 140/182/180 151/193/191 150/192/190
f 140/182/180 141/183/181 152/194/192 151/193/191
f 142/184/183 143/185/182 154/196/193 153/195/194
f 143/185/182 144/186/184 155/197/195 154/196/193
f 144/186/184 145/187/185 156/198/196 155/197/195
f 145/187/185 146/188/186 157/199/197 156/198/196
f 146/188/186 147/189/187 158/200/198 157/199/197
f 147/189/187 148/190/188 159/201/199 158/200/198
f 148/190/188 149/191/189 160/202/200 159/201/199
f 149/191/189 150/192/190 161/203/201 160/202/200
f 150/192/190 151/193/191 162/204/202 161/203/201
f 151/193/191 152/194/192 163/205/203 162/204/202
