# This file uses centimeters as units for non-parametric coordinates.

mtllib AVATAR-base-editmode-041217-1.mtl
g default
v -1.845058 2.139678 0.412680
v -1.793913 2.139746 0.375630
v -1.742767 2.139813 0.338579
v -1.691621 2.139881 0.301529
v -1.640476 2.139948 0.264479
v -1.589330 2.140016 0.227429
v -1.538185 2.140083 0.190378
v -1.487039 2.140151 0.153328
v -1.435893 2.140218 0.116278
v -1.384748 2.140286 0.079227
v -1.333602 2.140353 0.042177
v -1.845101 2.172484 0.412680
v -1.793956 2.172552 0.375630
v -1.742810 2.172619 0.338579
v -1.691665 2.172687 0.301529
v -1.640519 2.172754 0.264479
v -1.589373 2.172822 0.227429
v -1.538228 2.172889 0.190378
v -1.487082 2.172957 0.153328
v -1.435937 2.173024 0.116278
v -1.384791 2.173092 0.079227
v -1.333645 2.173159 0.042177
v -1.845145 2.205291 0.412680
v -1.793999 2.205358 0.375630
v -1.742854 2.205426 0.338579
v -1.691708 2.205493 0.301529
v -1.640562 2.205561 0.264479
v -1.589417 2.205628 0.227429
v -1.538271 2.205696 0.190378
v -1.487126 2.205763 0.153328
v -1.435980 2.205831 0.116278
v -1.384834 2.205898 0.079227
v -1.333689 2.205966 0.042177
v -1.845188 2.238097 0.412680
v -1.794042 2.238164 0.375630
v -1.742897 2.238232 0.338579
v -1.691751 2.238299 0.301529
v -1.640606 2.238367 0.264479
v -1.589460 2.238434 0.227429
v -1.538314 2.238502 0.190378
v -1.487169 2.238569 0.153328
v -1.436023 2.238637 0.116278
v -1.384878 2.238704 0.079227
v -1.333732 2.238772 0.042177
v -1.845231 2.270903 0.412680
v -1.794086 2.270970 0.375630
v -1.742940 2.271038 0.338579
v -1.691795 2.271105 0.301529
v -1.640649 2.271173 0.264479
v -1.589503 2.271240 0.227429
v -1.538358 2.271308 0.190378
v -1.487212 2.271375 0.153328
v -1.436067 2.271443 0.116278
v -1.384921 2.271510 0.079227
v -1.333775 2.271578 0.042177
v -1.845275 2.303709 0.412680
v -1.794129 2.303777 0.375630
v -1.742983 2.303844 0.338579
v -1.691838 2.303912 0.301529
v -1.640692 2.303979 0.264479
v -1.589547 2.304047 0.227429
v -1.538401 2.304114 0.190378
v -1.487255 2.304182 0.153328
v -1.436110 2.304249 0.116278
v -1.384964 2.304317 0.079227
v -1.333819 2.304384 0.042177
v -1.845318 2.336515 0.412680
v -1.794172 2.336583 0.375630
v -1.743027 2.336650 0.338579
v -1.691881 2.336718 0.301529
v -1.640736 2.336785 0.264479
v -1.589590 2.336853 0.227429
v -1.538444 2.336920 0.190378
v -1.487299 2.336988 0.153328
v -1.436153 2.337055 0.116278
v -1.385008 2.337123 0.079227
v -1.333862 2.337190 0.042177
v -1.845361 2.369321 0.412680
v -1.794216 2.369389 0.375630
v -1.743070 2.369456 0.338579
v -1.691924 2.369524 0.301529
v -1.640779 2.369591 0.264479
v -1.589633 2.369659 0.227429
v -1.538488 2.369726 0.190378
v -1.487342 2.369794 0.153328
v -1.436196 2.369861 0.116278
v -1.385051 2.369929 0.079227
v -1.333905 2.369996 0.042177
v -1.845405 2.402128 0.412680
v -1.794259 2.402195 0.375630
v -1.743113 2.402263 0.338579
v -1.691968 2.402330 0.301529
v -1.640822 2.402398 0.264479
v -1.589677 2.402465 0.227429
v -1.538531 2.402533 0.190378
v -1.487385 2.402600 0.153328
v -1.436240 2.402668 0.116278
v -1.385094 2.402735 0.079227
v -1.333949 2.402803 0.042177
v -1.845448 2.434934 0.412680
v -1.794302 2.435001 0.375630
v -1.743157 2.435069 0.338579
v -1.692011 2.435136 0.301529
v -1.640865 2.435204 0.264479
v -1.589720 2.435271 0.227429
v -1.538574 2.435339 0.190378
v -1.487429 2.435406 0.153328
v -1.436283 2.435474 0.116278
v -1.385137 2.435541 0.079227
v -1.333992 2.435609 0.042177
v -1.845491 2.467740 0.412680
v -1.794346 2.467807 0.375630
v -1.743200 2.467875 0.338579
v -1.692054 2.467942 0.301529
v -1.640909 2.468010 0.264479
v -1.589763 2.468077 0.227429
v -1.538618 2.468145 0.190378
v -1.487472 2.468212 0.153328
v -1.436326 2.468280 0.116278
v -1.385181 2.468347 0.079227
v -1.334035 2.468415 0.042177
vt 0.405820 0.906983
vt 0.414423 0.906983
vt 0.423025 0.906983
vt 0.431628 0.906983
vt 0.440231 0.906983
vt 0.448833 0.906983
vt 0.457436 0.906983
vt 0.466038 0.906983
vt 0.474641 0.906983
vt 0.483244 0.906983
vt 0.491846 0.906983
vt 0.405820 0.910938
vt 0.414423 0.910938
vt 0.423025 0.910938
vt 0.431628 0.910938
vt 0.440231 0.910938
vt 0.448833 0.910938
vt 0.457436 0.910938
vt 0.466038 0.910938
vt 0.474641 0.910938
vt 0.483244 0.910938
vt 0.491846 0.910938
vt 0.405820 0.914894
vt 0.414423 0.914894
vt 0.423025 0.914894
vt 0.431628 0.914894
vt 0.440231 0.914894
vt 0.448833 0.914894
vt 0.457436 0.914894
vt 0.466038 0.914894
vt 0.474641 0.914894
vt 0.483244 0.914894
vt 0.491846 0.914894
vt 0.405820 0.918849
vt 0.414423 0.918849
vt 0.423025 0.918849
vt 0.431628 0.918849
vt 0.440231 0.918849
vt 0.448833 0.918849
vt 0.457436 0.918849
vt 0.466038 0.918849
vt 0.474641 0.918849
vt 0.483244 0.918849
vt 0.491846 0.918849
vt 0.405820 0.922804
vt 0.414423 0.922804
vt 0.423025 0.922804
vt 0.431628 0.922804
vt 0.440231 0.922804
vt 0.448833 0.922804
vt 0.457436 0.922804
vt 0.466038 0.922804
vt 0.474641 0.922804
vt 0.483244 0.922804
vt 0.491846 0.922804
vt 0.405820 0.926760
vt 0.414423 0.926760
vt 0.423025 0.926760
vt 0.431628 0.926760
vt 0.440231 0.926760
vt 0.448833 0.926760
vt 0.457436 0.926760
vt 0.466038 0.926760
vt 0.474641 0.926760
vt 0.483244 0.926760
vt 0.491846 0.926760
vt 0.405820 0.930715
vt 0.414423 0.930715
vt 0.423025 0.930715
vt 0.431628 0.930715
vt 0.440231 0.930715
vt 0.448833 0.930715
vt 0.457436 0.930715
vt 0.466038 0.930715
vt 0.474641 0.930715
vt 0.483244 0.930715
vt 0.491846 0.930715
vt 0.405820 0.934670
vt 0.414423 0.934670
vt 0.423025 0.934670
vt 0.431628 0.934670
vt 0.440231 0.934670
vt 0.448833 0.934670
vt 0.457436 0.934670
vt 0.466038 0.934670
vt 0.474641 0.934670
vt 0.483244 0.934670
vt 0.491846 0.934670
vt 0.405820 0.938626
vt 0.414423 0.938626
vt 0.423025 0.938626
vt 0.431628 0.938626
vt 0.440231 0.938626
vt 0.448833 0.938626
vt 0.457436 0.938626
vt 0.466038 0.938626
vt 0.474641 0.938626
vt 0.483244 0.938626
vt 0.491846 0.938626
vt 0.405820 0.942581
vt 0.414423 0.942581
vt 0.423025 0.942581
vt 0.431628 0.942581
vt 0.440231 0.942581
vt 0.448833 0.942581
vt 0.457436 0.942581
vt 0.466038 0.942581
vt 0.474641 0.942581
vt 0.483244 0.942581
vt 0.491846 0.942581
vt 0.405820 0.946536
vt 0.414423 0.946536
vt 0.423025 0.946536
vt 0.431628 0.946536
vt 0.440231 0.946536
vt 0.448833 0.946536
vt 0.457436 0.946536
vt 0.466038 0.946536
vt 0.474641 0.946536
vt 0.483244 0.946536
vt 0.491846 0.946536
vn 0.586653 0.000774 0.809838
vn 0.586653 0.000774 0.809838
vn 0.586653 0.000774 0.809838
vn 0.586653 0.000774 0.809838
vn 0.586653 0.000774 0.809838
vn 0.586653 0.000774 0.809838
vn 0.586653 0.000774 0.809838
vn 0.586653 0.000774 0.809838
vn 0.586653 0.000774 0.809838
vn 0.586653 0.000774 0.809838
vn 0.586653 0.000774 0.809838
vn 0.586653 0.000774 0.809838
vn 0.586653 0.000774 0.809838
vn 0.586653 0.000774 0.809838
vn 0.586653 0.000774 0.809838
vn 0.586653 0.000774 0.809838
vn 0.586653 0.000774 0.809838
vn 0.586653 0.000774 0.809838
vn 0.586653 0.000774 0.809838
vn 0.586653 0.000774 0.809838
vn 0.586653 0.000774 0.809838
vn 0.586653 0.000774 0.809838
vn 0.586653 0.000774 0.809838
vn 0.586653 0.000774 0.809838
vn 0.586653 0.000774 0.809838
vn 0.586653 0.000774 0.809838
vn 0.586653 0.000774 0.809838
vn 0.586653 0.000774 0.809838
vn 0.586653 0.000774 0.809838
vn 0.586653 0.000774 0.809838
vn 0.586653 0.000774 0.809838
vn 0.586653 0.000774 0.809838
vn 0.586653 0.000774 0.809838
vn 0.586653 0.000774 0.809838
vn 0.586653 0.000774 0.809838
vn 0.586653 0.000774 0.809838
vn 0.586653 0.000774 0.809838
vn 0.586653 0.000774 0.809838
vn 0.586653 0.000774 0.809838
vn 0.586653 0.000774 0.809838
vn 0.586653 0.000774 0.809838
vn 0.586653 0.000774 0.809838
vn 0.586653 0.000774 0.809838
vn 0.586653 0.000774 0.809838
vn 0.586653 0.000774 0.809838
vn 0.586653 0.000774 0.809838
vn 0.586653 0.000774 0.809838
vn 0.586653 0.000774 0.809838
vn 0.586653 0.000774 0.809838
vn 0.586653 0.000774 0.809838
vn 0.586653 0.000774 0.809838
vn 0.586653 0.000774 0.809838
vn 0.586653 0.000774 0.809838
vn 0.586653 0.000774 0.809838
vn 0.586653 0.000774 0.809838
vn 0.586653 0.000774 0.809838
vn 0.586653 0.000774 0.809838
vn 0.586653 0.000774 0.809838
vn 0.586653 0.000774 0.809838
vn 0.586653 0.000774 0.809838
vn 0.586653 0.000774 0.809838
vn 0.586653 0.000774 0.809838
vn 0.586653 0.000774 0.809838
vn 0.586653 0.000774 0.809838
vn 0.586653 0.000774 0.809838
vn 0.586653 0.000774 0.809838
vn 0.586653 0.000774 0.809838
vn 0.586653 0.000774 0.809838
vn 0.586653 0.000774 0.809838
vn 0.586653 0.000774 0.809838
vn 0.586653 0.000774 0.809838
vn 0.586653 0.000774 0.809838
vn 0.586653 0.000774 0.809838
vn 0.586653 0.000774 0.809838
vn 0.586653 0.000774 0.809838
vn 0.586653 0.000774 0.809838
vn 0.586653 0.000774 0.809838
vn 0.586653 0.000774 0.809838
vn 0.586653 0.000774 0.809838
vn 0.586653 0.000774 0.809838
vn 0.586653 0.000774 0.809838
vn 0.586653 0.000774 0.809838
vn 0.586653 0.000774 0.809838
vn 0.586653 0.000774 0.809838
vn 0.586653 0.000774 0.809838
vn 0.586653 0.000774 0.809838
vn 0.586653 0.000774 0.809838
vn 0.586653 0.000774 0.809838
vn 0.586653 0.000774 0.809838
vn 0.586653 0.000774 0.809838
vn 0.586653 0.000774 0.809838
vn 0.586653 0.000774 0.809838
vn 0.586653 0.000774 0.809838
vn 0.586653 0.000774 0.809838
vn 0.586653 0.000774 0.809838
vn 0.586653 0.000774 0.809838
vn 0.586653 0.000774 0.809838
vn 0.586653 0.000774 0.809838
vn 0.586653 0.000774 0.809838
vn 0.586653 0.000774 0.809838
vn 0.586653 0.000774 0.809838
vn 0.586653 0.000774 0.809838
vn 0.586653 0.000774 0.809838
vn 0.586653 0.000774 0.809838
vn 0.586653 0.000774 0.809838
vn 0.586653 0.000774 0.809838
vn 0.586653 0.000774 0.809838
vn 0.586653 0.000774 0.809838
vn 0.586653 0.000774 0.809838
vn 0.586653 0.000774 0.809838
vn 0.586653 0.000774 0.809838
vn 0.586653 0.000774 0.809838
vn 0.586653 0.000774 0.809838
vn 0.586653 0.000774 0.809838
vn 0.586653 0.000774 0.809838
vn 0.586653 0.000774 0.809838
vn 0.586653 0.000774 0.809838
vn 0.586653 0.000774 0.809838
vn 0.586653 0.000774 0.809838
vn 0.586653 0.000774 0.809838
vn 0.586653 0.000774 0.809838
s 1
g pPlane2
usemtl pasted__phong3SG
f 1/1/1 2/2/2 13/13/3 12/12/4
f 2/2/2 3/3/5 14/14/6 13/13/3
f 3/3/5 4/4/7 15/15/8 14/14/6
f 4/4/7 5/5/9 16/16/10 15/15/8
f 5/5/9 6/6/11 17/17/12 16/16/10
f 6/6/11 7/7/13 18/18/14 17/17/12
f 7/7/13 8/8/15 19/19/16 18/18/14
f 8/8/15 9/9/17 20/20/18 19/19/16
f 9/9/17 10/10/19 21/21/20 20/20/18
f 10/10/19 11/11/21 22/22/22 21/21/20
f 12/12/4 13/13/3 24/24/23 23/23/24
f 13/13/3 14/14/6 25/25/25 24/24/23
f 14/14/6 15/15/8 26/26/26 25/25/25
f 15/15/8 16/16/10 27/27/27 26/26/26
f 16/16/10 17/17/12 28/28/28 27/27/27
f 17/17/12 18/18/14 29/29/29 28/28/28
f 18/18/14 19/19/16 30/30/30 29/29/29
f 19/19/16 20/20/18 31/31/31 30/30/30
f 20/20/18 21/21/20 32/32/32 31/31/31
f 21/21/20 22/22/22 33/33/33 32/32/32
f 23/23/24 24/24/23 35/35/34 34/34/35
f 24/24/23 25/25/25 36/36/36 35/35/34
f 25/25/25 26/26/26 37/37/37 36/36/36
f 26/26/26 27/27/27 38/38/38 37/37/37
f 27/27/27 28/28/28 39/39/39 38/38/38
f 28/28/28 29/29/29 40/40/40 39/39/39
f 29/29/29 30/30/30 41/41/41 40/40/40
f 30/30/30 31/31/31 42/42/42 41/41/41
f 31/31/31 32/32/32 43/43/43 42/42/42
f 32/32/32 33/33/33 44/44/44 43/43/43
f 34/34/35 35/35/34 46/46/45 45/45/46
f 35/35/34 36/36/36 47/47/47 46/46/45
f 36/36/36 37/37/37 48/48/48 47/47/47
f 37/37/37 38/38/38 49/49/49 48/48/48
f 38/38/38 39/39/39 50/50/50 49/49/49
f 39/39/39 40/40/40 51/51/51 50/50/50
f 40/40/40 41/41/41 52/52/52 51/51/51
f 41/41/41 42/42/42 53/53/53 52/52/52
f 42/42/42 43/43/43 54/54/54 53/53/53
f 43/43/43 44/44/44 55/55/55 54/54/54
f 45/45/46 46/46/45 57/57/56 56/56/57
f 46/46/45 47/47/47 58/58/58 57/57/56
f 47/47/47 48/48/48 59/59/59 58/58/58
f 48/48/48 49/49/49 60/60/60 59/59/59
f 49/49/49 50/50/50 61/61/61 60/60/60
f 50/50/50 51/51/51 62/62/62 61/61/61
f 51/51/51 52/52/52 63/63/63 62/62/62
f 52/52/52 53/53/53 64/64/64 63/63/63
f 53/53/53 54/54/54 65/65/65 64/64/64
f 54/54/54 55/55/55 66/66/66 65/65/65
f 56/56/57 57/57/56 68/68/67 67/67/68
f 57/57/56 58/58/58 69/69/69 68/68/67
f 58/58/58 59/59/59 70/70/70 69/69/69
f 59/59/59 60/60/60 71/71/71 70/70/70
f 60/60/60 61/61/61 72/72/72 71/71/71
f 61/61/61 62/62/62 73/73/73 72/72/72
f 62/62/62 63/63/63 74/74/74 73/73/73
f 63/63/63 64/64/64 75/75/75 74/74/74
f 64/64/64 65/65/65 76/76/76 75/75/75
f 65/65/65 66/66/66 77/77/77 76/76/76
f 67/67/68 68/68/67 79/79/78 78/78/79
f 68/68/67 69/69/69 80/80/80 79/79/78
f 69/69/69 70/70/70 81/81/81 80/80/80
f 70/70/70 71/71/71 82/82/82 81/81/81
f 71/71/71 72/72/72 83/83/83 82/82/82
f 72/72/72 73/73/73 84/84/84 83/83/83
f 73/73/73 74/74/74 85/85/85 84/84/84
f 74/74/74 75/75/75 86/86/86 85/85/85
f 75/75/75 76/76/76 87/87/87 86/86/86
f 76/76/76 77/77/77 88/88/88 87/87/87
f 78/78/79 79/79/78 90/90/89 89/89/90
f 79/79/78 80/80/80 91/91/91 90/90/89
f 80/80/80 81/81/81 92/92/92 91/91/91
f 81/81/81 82/82/82 93/93/93 92/92/92
f 82/82/82 83/83/83 94/94/94 93/93/93
f 83/83/83 84/84/84 95/95/95 94/94/94
f 84/84/84 85/85/85 96/96/96 95/95/95
f 85/85/85 86/86/86 97/97/97 96/96/96
f 86/86/86 87/87/87 98/98/98 97/97/97
f 87/87/87 88/88/88 99/99/99 98/98/98
f 89/89/90 90/90/89 101/101/100 100/100/101
f 90/90/89 91/91/91 102/102/102 101/101/100
f 91/91/91 92/92/92 103/103/103 102/102/102
f 92/92/92 93/93/93 104/104/104 103/103/103
f 93/93/93 94/94/94 105/105/105 104/104/104
f 94/94/94 95/95/95 106/106/106 105/105/105
f 95/95/95 96/96/96 107/107/107 106/106/106
f 96/96/96 97/97/97 108/108/108 107/107/107
f 97/97/97 98/98/98 109/109/109 108/108/108
f 98/98/98 99/99/99 110/110/110 109/109/109
f 100/100/101 101/101/100 112/112/111 111/111/112
f 101/101/100 102/102/102 113/113/113 112/112/111
f 102/102/102 103/103/103 114/114/114 113/113/113
f 103/103/103 104/104/104 115/115/115 114/114/114
f 104/104/104 105/105/105 116/116/116 115/115/115
f 105/105/105 106/106/106 117/117/117 116/116/116
f 106/106/106 107/107/107 118/118/118 117/117/117
f 107/107/107 108/108/108 119/119/119 118/118/118
f 108/108/108 109/109/109 120/120/120 119/119/119
f 109/109/109 110/110/110 121/121/121 120/120/120
g default
v -1.722194 0.856938 -0.009109
v -1.782354 0.856938 0.044599
v -1.822972 0.856938 0.114268
v -1.840073 0.856938 0.193079
v -1.831984 0.856938 0.273317
v -1.799495 0.856938 0.347128
v -1.745787 0.856938 0.407287
v -1.676118 0.856938 0.447906
v -1.597307 0.856938 0.465007
v -1.517069 0.856938 0.456917
v -1.443258 0.856938 0.424429
v -1.383098 0.856938 0.370721
v -1.342480 0.856938 0.301052
v -1.325379 0.856938 0.222241
v -1.333469 0.856938 0.142003
v -1.365957 0.856938 0.068192
v -1.419665 0.856938 0.008032
v -1.489334 0.856938 -0.032586
v -1.568145 0.856938 -0.049687
v -1.648383 0.856938 -0.041597
v -1.722194 0.960715 -0.009109
v -1.782354 0.960715 0.044599
v -1.822972 0.960715 0.114268
v -1.840073 0.960715 0.193079
v -1.831984 0.960715 0.273317
v -1.799495 0.960715 0.347128
v -1.745787 0.960715 0.407287
v -1.676118 0.960715 0.447906
v -1.597307 0.960715 0.465007
v -1.517069 0.960715 0.456917
v -1.443258 0.960715 0.424429
v -1.383098 0.960715 0.370721
v -1.342480 0.960715 0.301052
v -1.325379 0.960715 0.222241
v -1.333469 0.960715 0.142003
v -1.365957 0.960715 0.068192
v -1.419665 0.960715 0.008032
v -1.489334 0.960715 -0.032586
v -1.568145 0.960715 -0.049687
v -1.648383 0.960715 -0.041597
v -1.582726 0.856938 0.207660
v -1.582726 0.960715 0.207660
vt 0.855100 0.848454
vt 0.850396 0.839221
vt 0.843069 0.831895
vt 0.833836 0.827190
vt 0.823602 0.825569
vt 0.813368 0.827190
vt 0.804135 0.831894
vt 0.796808 0.839221
vt 0.792104 0.848454
vt 0.790483 0.858688
vt 0.792104 0.868923
vt 0.796808 0.878155
vt 0.804135 0.885482
vt 0.813367 0.890186
vt 0.823602 0.891807
vt 0.833836 0.890186
vt 0.843069 0.885482
vt 0.850396 0.878155
vt 0.855100 0.868923
vt 0.856721 0.858688
vt 0.760962 0.810164
vt 0.770283 0.810164
vt 0.779604 0.810164
vt 0.788925 0.810164
vt 0.798246 0.810164
vt 0.807567 0.810164
vt 0.816888 0.810164
vt 0.826209 0.810164
vt 0.835529 0.810164
vt 0.844850 0.810164
vt 0.854171 0.810164
vt 0.863492 0.810164
vt 0.872813 0.810164
vt 0.882134 0.810164
vt 0.891455 0.810164
vt 0.900776 0.810164
vt 0.910097 0.810164
vt 0.919418 0.810164
vt 0.928738 0.810164
vt 0.938059 0.810164
vt 0.947380 0.810164
vt 0.760962 0.820894
vt 0.770283 0.820894
vt 0.779604 0.820894
vt 0.788925 0.820894
vt 0.798246 0.820894
vt 0.807567 0.820894
vt 0.816888 0.820894
vt 0.826209 0.820894
vt 0.835529 0.820894
vt 0.844850 0.820894
vt 0.854171 0.820894
vt 0.863492 0.820894
vt 0.872813 0.820894
vt 0.882134 0.820894
vt 0.891455 0.820894
vt 0.900776 0.820894
vt 0.910097 0.820894
vt 0.919418 0.820894
vt 0.928738 0.820894
vt 0.938059 0.820894
vt 0.947380 0.820894
vt 0.939110 0.848265
vt 0.934227 0.838681
vt 0.926621 0.831075
vt 0.917037 0.826191
vt 0.906413 0.824509
vt 0.895789 0.826191
vt 0.886205 0.831075
vt 0.878599 0.838681
vt 0.873716 0.848265
vt 0.872033 0.858889
vt 0.873716 0.869513
vt 0.878599 0.879097
vt 0.886205 0.886702
vt 0.895789 0.891586
vt 0.906413 0.893268
vt 0.917037 0.891586
vt 0.926621 0.886702
vt 0.934227 0.879097
vt 0.939110 0.869513
vt 0.940793 0.858889
vt 0.823602 0.857364
vt 0.906413 0.857513
vn -0.541078 0.000000 -0.840973
vn -0.774471 0.000000 -0.632609
vn -0.774471 0.000000 -0.632609
vn -0.541078 0.000000 -0.840973
vn -0.932053 0.000000 -0.362322
vn -0.932053 0.000000 -0.362322
vn -0.998399 0.000000 -0.056569
vn -0.998399 0.000000 -0.056569
vn -0.967014 0.000000 0.254722
vn -0.967014 0.000000 0.254722
vn -0.840972 0.000000 0.541079
vn -0.840972 0.000000 0.541079
vn -0.632609 0.000000 0.774471
vn -0.632609 0.000000 0.774471
vn -0.362322 0.000000 0.932053
vn -0.362322 0.000000 0.932053
vn -0.056569 0.000000 0.998399
vn -0.056569 0.000000 0.998399
vn 0.254722 0.000000 0.967014
vn 0.254722 0.000000 0.967014
vn 0.541079 0.000000 0.840972
vn 0.541079 0.000000 0.840972
vn 0.774471 0.000000 0.632609
vn 0.774471 0.000000 0.632609
vn 0.932053 0.000000 0.362322
vn 0.932053 0.000000 0.362322
vn 0.998399 0.000000 0.056569
vn 0.998399 0.000000 0.056569
vn 0.967014 0.000000 -0.254722
vn 0.967014 0.000000 -0.254722
vn 0.840972 0.000000 -0.541079
vn 0.840972 0.000000 -0.541079
vn 0.632609 0.000000 -0.774471
vn 0.632609 0.000000 -0.774471
vn 0.362322 0.000000 -0.932053
vn 0.362322 0.000000 -0.932053
vn 0.056569 0.000000 -0.998399
vn 0.056569 0.000000 -0.998399
vn -0.254721 0.000000 -0.967015
vn -0.254721 0.000000 -0.967015
vn 0.000000 -1.000000 0.000000
vn 0.000000 -1.000000 0.000000
vn 0.000000 -1.000000 0.000000
vn 0.000000 -1.000000 0.000000
vn 0.000000 -1.000000 0.000000
vn 0.000000 -1.000000 0.000000
vn 0.000000 -1.000000 0.000000
vn 0.000000 -1.000000 0.000000
vn 0.000000 -1.000000 0.000000
vn 0.000000 -1.000000 0.000000
vn 0.000000 -1.000000 0.000000
vn 0.000000 -1.000000 0.000000
vn 0.000000 -1.000000 0.000000
vn 0.000000 -1.000000 0.000000
vn 0.000000 -1.000000 0.000000
vn 0.000000 -1.000000 0.000000
vn 0.000000 -1.000000 0.000000
vn 0.000000 -1.000000 0.000000
vn 0.000000 -1.000000 0.000000
vn 0.000000 -1.000000 0.000000
vn 0.000000 -1.000000 0.000000
vn 0.000000 1.000000 -0.000000
vn 0.000000 1.000000 -0.000000
vn 0.000000 1.000000 -0.000000
vn 0.000000 1.000000 -0.000000
vn 0.000000 1.000000 -0.000000
vn 0.000000 1.000000 -0.000000
vn 0.000000 1.000000 -0.000000
vn 0.000000 1.000000 -0.000000
vn 0.000000 1.000000 -0.000000
vn 0.000000 1.000000 -0.000000
vn 0.000000 1.000000 -0.000000
vn 0.000000 1.000000 -0.000000
vn 0.000000 1.000000 -0.000000
vn 0.000000 1.000000 -0.000000
vn 0.000000 1.000000 -0.000000
vn 0.000000 1.000000 -0.000000
vn 0.000000 1.000000 -0.000000
vn 0.000000 1.000000 -0.000000
vn 0.000000 1.000000 -0.000000
vn 0.000000 1.000000 -0.000000
vn 0.000000 1.000000 -0.000000
s 1
g pCylinder8
usemtl pasted__phong3SG
f 122/142/122 123/143/123 143/164/124 142/163/125
f 123/143/123 124/144/126 144/165/127 143/164/124
f 124/144/126 125/145/128 145/166/129 144/165/127
f 125/145/128 126/146/130 146/167/131 145/166/129
f 126/146/130 127/147/132 147/168/133 146/167/131
f 127/147/132 128/148/134 148/169/135 147/168/133
f 128/148/134 129/149/136 149/170/137 148/169/135
f 129/149/136 130/150/138 150/171/139 149/170/137
f 130/150/138 131/151/140 151/172/141 150/171/139
f 131/151/140 132/152/142 152/173/143 151/172/141
f 132/152/142 133/153/144 153/174/145 152/173/143
f 133/153/144 134/154/146 154/175/147 153/174/145
f 134/154/146 135/155/148 155/176/149 154/175/147
f 135/155/148 136/156/150 156/177/151 155/176/149
f 136/156/150 137/157/152 157/178/153 156/177/151
f 137/157/152 138/158/154 158/179/155 157/178/153
f 138/158/154 139/159/156 159/180/157 158/179/155
f 139/159/156 140/160/158 160/181/159 159/180/157
f 140/160/158 141/161/160 161/182/161 160/181/159
f 141/161/160 122/162/122 142/183/125 161/182/161
s 2
f 123/123/162 122/122/163 162/204/164
f 124/124/165 123/123/162 162/204/164
f 125/125/166 124/124/165 162/204/164
f 126/126/167 125/125/166 162/204/164
f 127/127/168 126/126/167 162/204/164
f 128/128/169 127/127/168 162/204/164
f 129/129/170 128/128/169 162/204/164
f 130/130/171 129/129/170 162/204/164
f 131/131/172 130/130/171 162/204/164
f 132/132/173 131/131/172 162/204/164
f 133/133/174 132/132/173 162/204/164
f 134/134/175 133/133/174 162/204/164
f 135/135/176 134/134/175 162/204/164
f 136/136/177 135/135/176 162/204/164
f 137/137/178 136/136/177 162/204/164
f 138/138/179 137/137/178 162/204/164
f 139/139/180 138/138/179 162/204/164
f 140/140/181 139/139/180 162/204/164
f 141/141/182 140/140/181 162/204/164
f 122/122/163 141/141/182 162/204/164
s 3
f 142/202/183 143/201/184 163/205/185
f 143/201/184 144/200/186 163/205/185
f 144/200/186 145/199/187 163/205/185
f 145/199/187 146/198/188 163/205/185
f 146/198/188 147/197/189 163/205/185
f 147/197/189 148/196/190 163/205/185
f 148/196/190 149/195/191 163/205/185
f 149/195/191 150/194/192 163/205/185
f 150/194/192 151/193/193 163/205/185
f 151/193/193 152/192/194 163/205/185
f 152/192/194 153/191/195 163/205/185
f 153/191/195 154/190/196 163/205/185
f 154/190/196 155/189/197 163/205/185
f 155/189/197 156/188/198 163/205/185
f 156/188/198 157/187/199 163/205/185
f 157/187/199 158/186/200 163/205/185
f 158/186/200 159/185/201 163/205/185
f 159/185/201 160/184/202 163/205/185
f 160/184/202 161/203/203 163/205/185
f 161/203/203 142/202/183 163/205/185
