# This file uses centimeters as units for non-parametric coordinates.

mtllib AVATAR-editmode-btn1-041217-1.mtl
g default
v -1.346030 1.988297 0.154169
v -1.356677 2.012449 0.160341
v -1.373259 2.031616 0.169954
v -1.394154 2.043922 0.182066
v -1.417316 2.048163 0.195494
v -1.440479 2.043922 0.208921
v -1.461374 2.031616 0.221034
v -1.477956 2.012449 0.230647
v -1.488602 1.988297 0.236818
v -1.492271 1.961524 0.238945
v -1.488602 1.934752 0.236818
v -1.477956 1.910600 0.230647
v -1.461374 1.891433 0.221034
v -1.440479 1.879127 0.208921
v -1.417316 1.874886 0.195494
v -1.394154 1.879127 0.182066
v -1.373259 1.891433 0.169954
v -1.356677 1.910600 0.160341
v -1.346031 1.934752 0.154169
v -1.342362 1.961524 0.152042
v -1.417316 1.961524 0.195494
vt 0.648184 0.924046
vt 0.647096 0.921912
vt 0.645403 0.920218
vt 0.643269 0.919131
vt 0.640904 0.918757
vt 0.638539 0.919131
vt 0.636405 0.920218
vt 0.634712 0.921912
vt 0.633625 0.924046
vt 0.633250 0.926411
vt 0.633625 0.928776
vt 0.634712 0.930910
vt 0.636405 0.932603
vt 0.638539 0.933690
vt 0.640904 0.934065
vt 0.643269 0.933690
vt 0.645403 0.932603
vt 0.647096 0.930910
vt 0.648184 0.928776
vt 0.648558 0.926411
vt 0.640904 0.926105
vn 0.501526 0.000000 0.865142
vn 0.501526 0.000000 0.865142
vn 0.501526 0.000000 0.865142
vn 0.501526 0.000000 0.865142
vn 0.501526 0.000000 0.865142
vn 0.501526 0.000000 0.865142
vn 0.501526 0.000000 0.865142
vn 0.501526 0.000000 0.865142
vn 0.501526 0.000000 0.865142
vn 0.501526 0.000000 0.865142
vn 0.501526 0.000000 0.865142
vn 0.501526 0.000000 0.865142
vn 0.501526 0.000000 0.865142
vn 0.501526 0.000000 0.865142
vn 0.501526 0.000000 0.865142
vn 0.501526 0.000000 0.865142
vn 0.501526 0.000000 0.865142
vn 0.501526 0.000000 0.865142
vn 0.501526 0.000000 0.865142
vn 0.501526 0.000000 0.865142
vn 0.501526 0.000000 0.865142
s 1
g pCylinder9
usemtl pasted__phong3SG
f 1/19/1 2/18/2 21/21/3
f 2/18/2 3/17/4 21/21/3
f 3/17/4 4/16/5 21/21/3
f 4/16/5 5/15/6 21/21/3
f 5/15/6 6/14/7 21/21/3
f 6/14/7 7/13/8 21/21/3
f 7/13/8 8/12/9 21/21/3
f 8/12/9 9/11/10 21/21/3
f 9/11/10 10/10/11 21/21/3
f 10/10/11 11/9/12 21/21/3
f 11/9/12 12/8/13 21/21/3
f 12/8/13 13/7/14 21/21/3
f 13/7/14 14/6/15 21/21/3
f 14/6/15 15/5/16 21/21/3
f 15/5/16 16/4/17 21/21/3
f 16/4/17 17/3/18 21/21/3
f 17/3/18 18/2/19 21/21/3
f 18/2/19 19/1/20 21/21/3
f 19/1/20 20/20/21 21/21/3
f 20/20/21 1/19/1 21/21/3
