# This file uses centimeters as units for non-parametric coordinates.

mtllib Action-close-btn-041217-1.mtl
g default
v 0.195777 0.680467 -0.279998
v 0.183471 0.704619 -0.279998
v 0.164304 0.723786 -0.279998
v 0.140152 0.736092 -0.279998
v 0.113379 0.740333 -0.279998
v 0.086606 0.736092 -0.279998
v 0.062454 0.723786 -0.279998
v 0.043287 0.704619 -0.279998
v 0.030981 0.680467 -0.279998
v 0.026741 0.653694 -0.279998
v 0.030981 0.626922 -0.279998
v 0.043287 0.602770 -0.279998
v 0.062454 0.583602 -0.279998
v 0.086606 0.571296 -0.279998
v 0.113379 0.567056 -0.279998
v 0.140152 0.571296 -0.279998
v 0.164304 0.583602 -0.279998
v 0.183471 0.602770 -0.279998
v 0.195777 0.626922 -0.279998
v 0.200017 0.653694 -0.279998
v 0.113379 0.653694 -0.279998
vt 0.648757 0.946982
vt 0.647670 0.944849
vt 0.645977 0.943155
vt 0.643843 0.942068
vt 0.641478 0.941694
vt 0.639112 0.942068
vt 0.636979 0.943155
vt 0.635285 0.944849
vt 0.634198 0.946982
vt 0.633823 0.949348
vt 0.634198 0.951713
vt 0.635285 0.953847
vt 0.636979 0.955540
vt 0.639112 0.956627
vt 0.641478 0.957002
vt 0.643843 0.956627
vt 0.645977 0.955540
vt 0.647670 0.953847
vt 0.648757 0.951713
vt 0.649132 0.949348
vt 0.641478 0.949042
vn 0.000000 0.000000 1.000000
vn 0.000000 0.000000 1.000000
vn 0.000000 0.000000 1.000000
vn 0.000000 0.000000 1.000000
vn 0.000000 0.000000 1.000000
vn 0.000000 0.000000 1.000000
vn 0.000000 0.000000 1.000000
vn 0.000000 0.000000 1.000000
vn 0.000000 0.000000 1.000000
vn 0.000000 0.000000 1.000000
vn 0.000000 0.000000 1.000000
vn 0.000000 0.000000 1.000000
vn 0.000000 0.000000 1.000000
vn 0.000000 0.000000 1.000000
vn 0.000000 0.000000 1.000000
vn 0.000000 0.000000 1.000000
vn 0.000000 0.000000 1.000000
vn 0.000000 0.000000 1.000000
vn 0.000000 0.000000 1.000000
vn 0.000000 0.000000 1.000000
vn 0.000000 0.000000 1.000000
s 1
g pCylinder3
usemtl pasted__phong3SG
f 1/19/1 2/18/2 21/21/3
f 2/18/2 3/17/4 21/21/3
f 3/17/4 4/16/5 21/21/3
f 4/16/5 5/15/6 21/21/3
f 5/15/6 6/14/7 21/21/3
f 6/14/7 7/13/8 21/21/3
f 7/13/8 8/12/9 21/21/3
f 8/12/9 9/11/10 21/21/3
f 9/11/10 10/10/11 21/21/3
f 10/10/11 11/9/12 21/21/3
f 11/9/12 12/8/13 21/21/3
f 12/8/13 13/7/14 21/21/3
f 13/7/14 14/6/15 21/21/3
f 14/6/15 15/5/16 21/21/3
f 15/5/16 16/4/17 21/21/3
f 16/4/17 17/3/18 21/21/3
f 17/3/18 18/2/19 21/21/3
f 18/2/19 19/1/20 21/21/3
f 19/1/20 20/20/21 21/21/3
f 20/20/21 1/19/1 21/21/3
