# This file uses centimeters as units for non-parametric coordinates.

mtllib Action-leftpanel-041217-1.mtl
g default
v -1.274561 2.624786 0.109645
v -1.556730 2.624786 0.298780
v -1.818138 2.624786 0.515685
v -1.274561 2.820778 0.109645
v -1.556730 2.820778 0.298780
v -1.818138 2.820778 0.515685
vt 0.608843 0.799412
vt 0.559092 0.799412
vt 0.509341 0.799412
vt 0.608843 0.830107
vt 0.559092 0.830107
vt 0.509341 0.830107
vn 0.556783 0.000000 0.830658
vn 0.556783 0.000000 0.830658
vn 0.598450 0.000000 0.801160
vn 0.598450 0.000000 0.801160
vn 0.638558 0.000000 0.769573
vn 0.638558 0.000000 0.769573
s 1
g pCylinder5
usemtl pasted__phong3SG
f 1/1/1 4/4/2 5/5/3 2/2/4
f 2/2/4 5/5/3 6/6/5 3/3/6
