# This file uses centimeters as units for non-parametric coordinates.

mtllib AVATAR-picker-color-041217-1.mtl
g default
v 0.538986 1.779940 0.706007
v 0.480747 1.882080 0.692241
v 0.394491 1.963139 0.690411
v 0.288663 2.015182 0.700695
v 0.173621 2.033114 0.722087
v 0.060626 2.015182 0.752493
v -0.039260 1.963139 0.788937
v -0.116260 1.882080 0.827850
v -0.162838 1.779940 0.865425
v -0.174433 1.666718 0.897983
v -0.149911 1.553495 0.922337
v -0.091671 1.451355 0.936102
v -0.005416 1.370296 0.937933
v 0.100413 1.318254 0.927649
v 0.215455 1.300321 0.906257
v 0.328449 1.318254 0.875851
v 0.428335 1.370296 0.839407
v 0.505336 1.451355 0.800493
v 0.551913 1.553495 0.762918
v 0.563509 1.666718 0.730361
v 0.194538 1.666718 0.814172
vt 0.486359 0.637231
vt 0.480526 0.625783
vt 0.471442 0.616698
vt 0.459993 0.610865
vt 0.447304 0.608855
vt 0.434614 0.610865
vt 0.423166 0.616698
vt 0.414081 0.625783
vt 0.408249 0.637231
vt 0.406238 0.649921
vt 0.408249 0.662611
vt 0.414081 0.674058
vt 0.423166 0.683143
vt 0.434614 0.688976
vt 0.447304 0.690986
vt 0.459993 0.688976
vt 0.471442 0.683143
vt 0.480526 0.674058
vt 0.486359 0.662611
vt 0.488369 0.649921
vt 0.447304 0.648278
vn 0.214496 0.249572 0.944301
vn 0.214496 0.249572 0.944301
vn 0.214496 0.249572 0.944301
vn 0.214496 0.249572 0.944301
vn 0.214496 0.249572 0.944301
vn 0.214496 0.249572 0.944301
vn 0.214496 0.249572 0.944301
vn 0.214496 0.249572 0.944301
vn 0.214496 0.249572 0.944301
vn 0.214496 0.249572 0.944301
vn 0.214496 0.249572 0.944301
vn 0.214496 0.249572 0.944301
vn 0.214496 0.249572 0.944301
vn 0.214496 0.249572 0.944301
vn 0.214496 0.249572 0.944301
vn 0.214496 0.249572 0.944301
vn 0.214496 0.249572 0.944301
vn 0.214496 0.249572 0.944301
vn 0.214496 0.249572 0.944301
vn 0.214496 0.249572 0.944301
vn 0.214496 0.249572 0.944301
s 1
g pCylinder13
usemtl pasted__phong3SG
f 1/19/1 2/18/2 21/21/3
f 2/18/2 3/17/4 21/21/3
f 3/17/4 4/16/5 21/21/3
f 4/16/5 5/15/6 21/21/3
f 5/15/6 6/14/7 21/21/3
f 6/14/7 7/13/8 21/21/3
f 7/13/8 8/12/9 21/21/3
f 8/12/9 9/11/10 21/21/3
f 9/11/10 10/10/11 21/21/3
f 10/10/11 11/9/12 21/21/3
f 11/9/12 12/8/13 21/21/3
f 12/8/13 13/7/14 21/21/3
f 13/7/14 14/6/15 21/21/3
f 14/6/15 15/5/16 21/21/3
f 15/5/16 16/4/17 21/21/3
f 16/4/17 17/3/18 21/21/3
f 17/3/18 18/2/19 21/21/3
f 18/2/19 19/1/20 21/21/3
f 19/1/20 20/20/21 21/21/3
f 20/20/21 1/19/1 21/21/3
g default
v -1.603588 2.040497 0.358717
v -1.613778 2.064591 0.365818
v -1.629571 2.083667 0.376838
v -1.649421 2.095858 0.390698
v -1.671385 2.099972 0.406041
v -1.693313 2.095605 0.421366
v -1.713058 2.083185 0.435173
v -1.728688 2.063927 0.446109
v -1.738673 2.039717 0.453105
v -1.742035 2.012925 0.455475
v -1.738446 1.986172 0.452988
v -1.728256 1.962079 0.445887
v -1.712463 1.943003 0.434867
v -1.692613 1.930811 0.421007
v -1.670649 1.926697 0.405664
v -1.648721 1.931065 0.390339
v -1.628975 1.943485 0.376532
v -1.613345 1.962742 0.365596
v -1.603361 1.986952 0.358600
v -1.599999 2.013745 0.356230
v -1.671017 2.013335 0.405853
vt 0.554287 0.943513
vt 0.552680 0.940359
vt 0.550176 0.937855
vt 0.547022 0.936248
vt 0.543525 0.935694
vt 0.540028 0.936248
vt 0.536873 0.937855
vt 0.534370 0.940359
vt 0.532763 0.943513
vt 0.532209 0.947010
vt 0.532763 0.950507
vt 0.534370 0.953662
vt 0.536873 0.956165
vt 0.540028 0.957772
vt 0.543525 0.958326
vt 0.547022 0.957772
vt 0.550176 0.956165
vt 0.552680 0.953662
vt 0.554287 0.950507
vt 0.554841 0.947010
vt 0.543525 0.946558
vn 0.572760 0.000647 0.819723
vn 0.572760 0.000647 0.819723
vn 0.572760 0.000647 0.819723
vn 0.572760 0.000647 0.819723
vn 0.572760 0.000647 0.819723
vn 0.572760 0.000647 0.819723
vn 0.572760 0.000647 0.819723
vn 0.572760 0.000647 0.819723
vn 0.572760 0.000647 0.819723
vn 0.572760 0.000647 0.819723
vn 0.572760 0.000647 0.819723
vn 0.572760 0.000647 0.819723
vn 0.572760 0.000647 0.819723
vn 0.572760 0.000647 0.819723
vn 0.572760 0.000647 0.819723
vn 0.572760 0.000647 0.819723
vn 0.572760 0.000647 0.819723
vn 0.572760 0.000647 0.819723
vn 0.572760 0.000647 0.819723
vn 0.572760 0.000647 0.819723
vn 0.572760 0.000647 0.819723
s 1
g pCylinder16
usemtl pasted__phong3SG
f 22/40/22 23/39/23 42/42/24
f 23/39/23 24/38/25 42/42/24
f 24/38/25 25/37/26 42/42/24
f 25/37/26 26/36/27 42/42/24
f 26/36/27 27/35/28 42/42/24
f 27/35/28 28/34/29 42/42/24
f 28/34/29 29/33/30 42/42/24
f 29/33/30 30/32/31 42/42/24
f 30/32/31 31/31/32 42/42/24
f 31/31/32 32/30/33 42/42/24
f 32/30/33 33/29/34 42/42/24
f 33/29/34 34/28/35 42/42/24
f 34/28/35 35/27/36 42/42/24
f 35/27/36 36/26/37 42/42/24
f 36/26/37 37/25/38 42/42/24
f 37/25/38 38/24/39 42/42/24
f 38/24/39 39/23/40 42/42/24
f 39/23/40 40/22/41 42/42/24
f 40/22/41 41/41/42 42/42/24
f 41/41/42 22/40/22 42/42/24
