# This file uses centimeters as units for non-parametric coordinates.

mtllib AVATAR-editmode-btn4-041217-1.mtl
g default
v -1.627856 2.411438 0.345201
v -1.638876 2.434880 0.353187
v -1.655226 2.452970 0.365028
v -1.675305 2.463935 0.379565
v -1.697149 2.466704 0.395375
v -1.718619 2.461005 0.410909
v -1.737613 2.447396 0.424649
v -1.752272 2.427208 0.435248
v -1.761161 2.402419 0.441669
v -1.763410 2.375454 0.443284
v -1.758799 2.348954 0.439934
v -1.747779 2.325511 0.431948
v -1.731429 2.307422 0.420107
v -1.711350 2.296456 0.405571
v -1.689506 2.293687 0.389761
v -1.668036 2.299387 0.374226
v -1.649042 2.312996 0.360487
v -1.634383 2.333183 0.349888
v -1.625494 2.357973 0.343467
v -1.623245 2.384937 0.341852
v -1.693328 2.380196 0.392568
vt 0.648184 0.924046
vt 0.647096 0.921912
vt 0.645403 0.920218
vt 0.643269 0.919131
vt 0.640904 0.918757
vt 0.638539 0.919131
vt 0.636405 0.920218
vt 0.634712 0.921912
vt 0.633625 0.924046
vt 0.633250 0.926411
vt 0.633625 0.928776
vt 0.634712 0.930910
vt 0.636405 0.932603
vt 0.638539 0.933690
vt 0.640904 0.934065
vt 0.643269 0.933690
vt 0.645403 0.932603
vt 0.647096 0.930910
vt 0.648184 0.928776
vt 0.648558 0.926411
vt 0.640904 0.926105
vn 0.586273 -0.000385 0.810113
vn 0.586273 -0.000385 0.810113
vn 0.586273 -0.000385 0.810113
vn 0.586273 -0.000385 0.810113
vn 0.586273 -0.000385 0.810113
vn 0.586273 -0.000385 0.810113
vn 0.586273 -0.000385 0.810113
vn 0.586273 -0.000385 0.810113
vn 0.586273 -0.000385 0.810113
vn 0.586273 -0.000385 0.810113
vn 0.586273 -0.000385 0.810113
vn 0.586273 -0.000385 0.810113
vn 0.586273 -0.000385 0.810113
vn 0.586273 -0.000385 0.810113
vn 0.586273 -0.000385 0.810113
vn 0.586273 -0.000385 0.810113
vn 0.586273 -0.000385 0.810113
vn 0.586273 -0.000385 0.810113
vn 0.586273 -0.000385 0.810113
vn 0.586273 -0.000385 0.810113
vn 0.586273 -0.000385 0.810113
s 1
g pCylinder15
usemtl pasted__phong3SG
f 1/19/1 2/18/2 21/21/3
f 2/18/2 3/17/4 21/21/3
f 3/17/4 4/16/5 21/21/3
f 4/16/5 5/15/6 21/21/3
f 5/15/6 6/14/7 21/21/3
f 6/14/7 7/13/8 21/21/3
f 7/13/8 8/12/9 21/21/3
f 8/12/9 9/11/10 21/21/3
f 9/11/10 10/10/11 21/21/3
f 10/10/11 11/9/12 21/21/3
f 11/9/12 12/8/13 21/21/3
f 12/8/13 13/7/14 21/21/3
f 13/7/14 14/6/15 21/21/3
f 14/6/15 15/5/16 21/21/3
f 15/5/16 16/4/17 21/21/3
f 16/4/17 17/3/18 21/21/3
f 17/3/18 18/2/19 21/21/3
f 18/2/19 19/1/20 21/21/3
f 19/1/20 20/20/21 21/21/3
f 20/20/21 1/19/1 21/21/3
