# This file uses centimeters as units for non-parametric coordinates.

mtllib AVATAR-picker-field-041217-1.mtl
g default
v -1.584300 2.437678 0.404724
v -1.594490 2.461771 0.411825
v -1.610283 2.480848 0.422845
v -1.630133 2.493039 0.436705
v -1.652097 2.497153 0.452049
v -1.674025 2.492786 0.467374
v -1.693770 2.480366 0.481180
v -1.709400 2.461108 0.492116
v -1.719385 2.436898 0.499112
v -1.722747 2.410106 0.501483
v -1.719157 2.383353 0.498995
v -1.708967 2.359260 0.491894
v -1.693174 2.340184 0.480875
v -1.673324 2.327992 0.467015
v -1.651360 2.323878 0.451671
v -1.629433 2.328245 0.436346
v -1.609687 2.340666 0.422540
v -1.594057 2.359923 0.411603
v -1.584072 2.384133 0.404608
v -1.580710 2.410926 0.402237
v -1.651729 2.410516 0.451860
vt 0.554287 0.943513
vt 0.552680 0.940359
vt 0.550176 0.937855
vt 0.547022 0.936248
vt 0.543525 0.935694
vt 0.540028 0.936248
vt 0.536873 0.937855
vt 0.534370 0.940359
vt 0.532763 0.943513
vt 0.532209 0.947010
vt 0.532763 0.950507
vt 0.534370 0.953662
vt 0.536873 0.956165
vt 0.540028 0.957772
vt 0.543525 0.958326
vt 0.547022 0.957772
vt 0.550176 0.956165
vt 0.552680 0.953662
vt 0.554287 0.950507
vt 0.554841 0.947010
vt 0.543525 0.946558
vn 0.572760 0.000647 0.819723
vn 0.572760 0.000647 0.819723
vn 0.572760 0.000647 0.819723
vn 0.572760 0.000647 0.819723
vn 0.572760 0.000647 0.819723
vn 0.572760 0.000647 0.819723
vn 0.572760 0.000647 0.819723
vn 0.572760 0.000647 0.819723
vn 0.572760 0.000647 0.819723
vn 0.572760 0.000647 0.819723
vn 0.572760 0.000647 0.819723
vn 0.572760 0.000647 0.819723
vn 0.572760 0.000647 0.819723
vn 0.572760 0.000647 0.819723
vn 0.572760 0.000647 0.819723
vn 0.572760 0.000647 0.819723
vn 0.572760 0.000647 0.819723
vn 0.572760 0.000647 0.819723
vn 0.572760 0.000647 0.819723
vn 0.572760 0.000647 0.819723
vn 0.572760 0.000647 0.819723
s 1
g pCylinder16
usemtl pasted__phong3SG
f 1/19/1 2/18/2 21/21/3
f 2/18/2 3/17/4 21/21/3
f 3/17/4 4/16/5 21/21/3
f 4/16/5 5/15/6 21/21/3
f 5/15/6 6/14/7 21/21/3
f 6/14/7 7/13/8 21/21/3
f 7/13/8 8/12/9 21/21/3
f 8/12/9 9/11/10 21/21/3
f 9/11/10 10/10/11 21/21/3
f 10/10/11 11/9/12 21/21/3
f 11/9/12 12/8/13 21/21/3
f 12/8/13 13/7/14 21/21/3
f 13/7/14 14/6/15 21/21/3
f 14/6/15 15/5/16 21/21/3
f 15/5/16 16/4/17 21/21/3
f 16/4/17 17/3/18 21/21/3
f 17/3/18 18/2/19 21/21/3
f 18/2/19 19/1/20 21/21/3
f 19/1/20 20/20/21 21/21/3
f 20/20/21 1/19/1 21/21/3
g default
v -0.466961 1.768983 0.865827
v -0.479220 1.792545 0.860413
v -0.498303 1.811074 0.855188
v -0.522340 1.822756 0.850663
v -0.548980 1.826448 0.847281
v -0.575615 1.821788 0.845374
v -0.599637 1.809233 0.845127
v -0.618695 1.790011 0.846566
v -0.630924 1.766004 0.849549
v -0.635126 1.739563 0.853784
v -0.630890 1.713274 0.858857
v -0.618631 1.689712 0.864271
v -0.599549 1.671184 0.869497
v -0.575511 1.659502 0.874022
v -0.548871 1.655810 0.877403
v -0.522236 1.660469 0.879311
v -0.498214 1.673025 0.879557
v -0.479156 1.692246 0.878118
v -0.466927 1.716253 0.875135
v -0.462725 1.742695 0.870900
v -0.548926 1.741129 0.862342
vt 0.554287 0.943513
vt 0.552680 0.940359
vt 0.550176 0.937855
vt 0.547022 0.936248
vt 0.543525 0.935694
vt 0.540028 0.936248
vt 0.536873 0.937855
vt 0.534370 0.940359
vt 0.532763 0.943513
vt 0.532209 0.947010
vt 0.532763 0.950507
vt 0.534370 0.953662
vt 0.536873 0.956165
vt 0.540028 0.957772
vt 0.543525 0.958326
vt 0.547022 0.957772
vt 0.550176 0.956165
vt 0.552680 0.953662
vt 0.554287 0.950507
vt 0.554841 0.947010
vt 0.543525 0.946558
vn -0.100417 0.172898 0.979807
vn -0.100417 0.172898 0.979807
vn -0.100417 0.172898 0.979807
vn -0.100417 0.172898 0.979807
vn -0.100417 0.172898 0.979808
vn -0.100417 0.172898 0.979807
vn -0.100417 0.172898 0.979807
vn -0.100417 0.172898 0.979807
vn -0.100417 0.172898 0.979807
vn -0.100417 0.172898 0.979807
vn -0.100417 0.172898 0.979807
vn -0.100417 0.172898 0.979807
vn -0.100417 0.172898 0.979807
vn -0.100417 0.172898 0.979807
vn -0.100417 0.172898 0.979807
vn -0.100417 0.172898 0.979807
vn -0.100417 0.172898 0.979807
vn -0.100417 0.172898 0.979807
vn -0.100417 0.172898 0.979807
vn -0.100417 0.172898 0.979807
vn -0.100417 0.172898 0.979808
s 1
g pCylinder18
usemtl pasted__phong3SG
f 22/40/22 23/39/23 42/42/24
f 23/39/23 24/38/25 42/42/24
f 24/38/25 25/37/26 42/42/24
f 25/37/26 26/36/27 42/42/24
f 26/36/27 27/35/28 42/42/24
f 27/35/28 28/34/29 42/42/24
f 28/34/29 29/33/30 42/42/24
f 29/33/30 30/32/31 42/42/24
f 30/32/31 31/31/32 42/42/24
f 31/31/32 32/30/33 42/42/24
f 32/30/33 33/29/34 42/42/24
f 33/29/34 34/28/35 42/42/24
f 34/28/35 35/27/36 42/42/24
f 35/27/36 36/26/37 42/42/24
f 36/26/37 37/25/38 42/42/24
f 37/25/38 38/24/39 42/42/24
f 38/24/39 39/23/40 42/42/24
f 39/23/40 40/22/41 42/42/24
f 40/22/41 41/41/42 42/42/24
f 41/41/42 22/40/22 42/42/24
g default
v -0.549945 0.945929 0.938333
v -0.387795 0.946143 0.936907
v -0.225646 0.946357 0.935480
v -0.063496 0.946572 0.934054
v 0.098654 0.946786 0.932627
v 0.260803 0.947000 0.931200
v 0.422953 0.947214 0.929774
v 0.585103 0.947428 0.928347
v 0.747252 0.947642 0.926921
v 0.909402 0.947856 0.925494
v 1.071552 0.948070 0.924068
v -0.550252 1.038996 0.917373
v -0.388102 1.039210 0.915946
v -0.225953 1.039424 0.914519
v -0.063803 1.039638 0.913093
v 0.098347 1.039852 0.911666
v 0.260496 1.040066 0.910240
v 0.422646 1.040280 0.908813
v 0.584795 1.040494 0.907387
v 0.746945 1.040708 0.905960
v 0.909095 1.040922 0.904533
v 1.071244 1.041136 0.903107
v -0.550559 1.132062 0.896412
v -0.388410 1.132276 0.894985
v -0.226260 1.132490 0.893559
v -0.064110 1.132704 0.892132
v 0.098039 1.132918 0.890706
v 0.260189 1.133132 0.889279
v 0.422339 1.133346 0.887852
v 0.584488 1.133560 0.886426
v 0.746638 1.133774 0.884999
v 0.908788 1.133988 0.883573
v 1.070937 1.134202 0.882146
v -0.550867 1.225128 0.875451
v -0.388717 1.225342 0.874024
v -0.226567 1.225556 0.872598
v -0.064418 1.225770 0.871171
v 0.097732 1.225984 0.869745
v 0.259882 1.226198 0.868318
v 0.422031 1.226412 0.866892
v 0.584181 1.226626 0.865465
v 0.746331 1.226840 0.864039
v 0.908480 1.227054 0.862612
v 1.070630 1.227268 0.861185
v -0.551174 1.318194 0.854490
v -0.389024 1.318408 0.853064
v -0.226875 1.318622 0.851637
v -0.064725 1.318836 0.850211
v 0.097425 1.319050 0.848784
v 0.259574 1.319264 0.847357
v 0.421724 1.319478 0.845931
v 0.583874 1.319692 0.844504
v 0.746023 1.319906 0.843078
v 0.908173 1.320120 0.841651
v 1.070323 1.320334 0.840225
v -0.551481 1.411260 0.833530
v -0.389331 1.411474 0.832103
v -0.227182 1.411688 0.830676
v -0.065032 1.411902 0.829250
v 0.097118 1.412116 0.827823
v 0.259267 1.412330 0.826397
v 0.421417 1.412544 0.824970
v 0.583566 1.412758 0.823544
v 0.745716 1.412972 0.822117
v 0.907866 1.413186 0.820690
v 1.070015 1.413400 0.819264
v -0.551788 1.504326 0.812569
v -0.389639 1.504540 0.811142
v -0.227489 1.504754 0.809716
v -0.065339 1.504968 0.808289
v 0.096810 1.505182 0.806863
v 0.258960 1.505396 0.805436
v 0.421110 1.505610 0.804009
v 0.583259 1.505824 0.802583
v 0.745409 1.506038 0.801156
v 0.907559 1.506252 0.799730
v 1.069708 1.506466 0.798303
v -0.552096 1.597392 0.791608
v -0.389946 1.597606 0.790181
v -0.227796 1.597820 0.788755
v -0.065647 1.598034 0.787328
v 0.096503 1.598248 0.785902
v 0.258653 1.598462 0.784475
v 0.420802 1.598676 0.783049
v 0.582952 1.598890 0.781622
v 0.745102 1.599104 0.780196
v 0.907251 1.599318 0.778769
v 1.069401 1.599532 0.777342
v -0.552403 1.690458 0.770647
v -0.390253 1.690672 0.769221
v -0.228104 1.690886 0.767794
v -0.065954 1.691100 0.766368
v 0.096196 1.691314 0.764941
v 0.258345 1.691528 0.763514
v 0.420495 1.691742 0.762088
v 0.582645 1.691957 0.760661
v 0.744794 1.692171 0.759235
v 0.906944 1.692385 0.757808
v 1.069094 1.692599 0.756382
v -0.552710 1.783524 0.749687
v -0.390560 1.783738 0.748260
v -0.228411 1.783952 0.746833
v -0.066261 1.784167 0.745407
v 0.095889 1.784381 0.743980
v 0.258038 1.784595 0.742554
v 0.420188 1.784809 0.741127
v 0.582337 1.785023 0.739701
v 0.744487 1.785237 0.738274
v 0.906637 1.785451 0.736848
v 1.068786 1.785665 0.735421
v -0.553017 1.876591 0.728726
v -0.390868 1.876805 0.727299
v -0.228718 1.877019 0.725873
v -0.066568 1.877233 0.724446
v 0.095581 1.877447 0.723020
v 0.257731 1.877661 0.721593
v 0.419881 1.877875 0.720166
v 0.582030 1.878089 0.718740
v 0.744180 1.878303 0.717313
v 0.906330 1.878517 0.715887
v 1.068479 1.878731 0.714460
vt 0.354597 0.487121
vt 0.372828 0.487121
vt 0.391060 0.487121
vt 0.409291 0.487121
vt 0.427523 0.487121
vt 0.445754 0.487121
vt 0.463986 0.487121
vt 0.482217 0.487121
vt 0.500449 0.487121
vt 0.518680 0.487121
vt 0.536912 0.487121
vt 0.354597 0.498377
vt 0.372828 0.498377
vt 0.391060 0.498377
vt 0.409291 0.498377
vt 0.427523 0.498377
vt 0.445754 0.498377
vt 0.463986 0.498377
vt 0.482217 0.498377
vt 0.500449 0.498377
vt 0.518680 0.498377
vt 0.536912 0.498377
vt 0.354597 0.509633
vt 0.372828 0.509633
vt 0.391060 0.509633
vt 0.409291 0.509633
vt 0.427523 0.509633
vt 0.445754 0.509633
vt 0.463986 0.509633
vt 0.482217 0.509633
vt 0.500449 0.509633
vt 0.518680 0.509633
vt 0.536912 0.509633
vt 0.354597 0.520889
vt 0.372828 0.520889
vt 0.391060 0.520889
vt 0.409291 0.520889
vt 0.427523 0.520889
vt 0.445754 0.520889
vt 0.463986 0.520889
vt 0.482217 0.520889
vt 0.500449 0.520889
vt 0.518680 0.520889
vt 0.536912 0.520889
vt 0.354597 0.532145
vt 0.372828 0.532145
vt 0.391060 0.532145
vt 0.409291 0.532145
vt 0.427523 0.532145
vt 0.445754 0.532145
vt 0.463986 0.532145
vt 0.482217 0.532145
vt 0.500449 0.532145
vt 0.518680 0.532145
vt 0.536912 0.532145
vt 0.354597 0.543401
vt 0.372828 0.543401
vt 0.391060 0.543401
vt 0.409291 0.543401
vt 0.427523 0.543401
vt 0.445754 0.543401
vt 0.463986 0.543401
vt 0.482217 0.543401
vt 0.500449 0.543401
vt 0.518680 0.543401
vt 0.536912 0.543401
vt 0.354597 0.554656
vt 0.372828 0.554656
vt 0.391060 0.554656
vt 0.409291 0.554656
vt 0.427523 0.554656
vt 0.445754 0.554656
vt 0.463986 0.554656
vt 0.482217 0.554656
vt 0.500449 0.554656
vt 0.518680 0.554656
vt 0.536912 0.554656
vt 0.354597 0.565912
vt 0.372828 0.565912
vt 0.391060 0.565912
vt 0.409291 0.565912
vt 0.427523 0.565912
vt 0.445754 0.565912
vt 0.463986 0.565912
vt 0.482217 0.565912
vt 0.500449 0.565912
vt 0.518680 0.565912
vt 0.536912 0.565912
vt 0.354597 0.577168
vt 0.372828 0.577168
vt 0.391060 0.577168
vt 0.409291 0.577168
vt 0.427523 0.577168
vt 0.445754 0.577168
vt 0.463986 0.577168
vt 0.482217 0.577168
vt 0.500449 0.577168
vt 0.518680 0.577168
vt 0.536912 0.577168
vt 0.354597 0.588424
vt 0.372828 0.588424
vt 0.391060 0.588424
vt 0.409291 0.588424
vt 0.427523 0.588424
vt 0.445754 0.588424
vt 0.463986 0.588424
vt 0.482217 0.588424
vt 0.500449 0.588424
vt 0.518680 0.588424
vt 0.536912 0.588424
vt 0.354597 0.599680
vt 0.372828 0.599680
vt 0.391060 0.599680
vt 0.409291 0.599680
vt 0.427523 0.599680
vt 0.445754 0.599680
vt 0.463986 0.599680
vt 0.482217 0.599680
vt 0.500449 0.599680
vt 0.518680 0.599680
vt 0.536912 0.599680
vn 0.008292 0.219739 0.975524
vn 0.008292 0.219739 0.975524
vn 0.008292 0.219739 0.975524
vn 0.008292 0.219739 0.975524
vn 0.008292 0.219739 0.975523
vn 0.008292 0.219739 0.975523
vn 0.008292 0.219739 0.975523
vn 0.008292 0.219739 0.975523
vn 0.008292 0.219739 0.975524
vn 0.008292 0.219739 0.975524
vn 0.008292 0.219739 0.975523
vn 0.008292 0.219739 0.975523
vn 0.008292 0.219739 0.975524
vn 0.008292 0.219739 0.975524
vn 0.008292 0.219739 0.975524
vn 0.008292 0.219739 0.975524
vn 0.008292 0.219739 0.975523
vn 0.008292 0.219739 0.975523
vn 0.008292 0.219739 0.975524
vn 0.008292 0.219739 0.975524
vn 0.008292 0.219739 0.975524
vn 0.008292 0.219739 0.975524
vn 0.008292 0.219739 0.975523
vn 0.008292 0.219739 0.975524
vn 0.008292 0.219739 0.975523
vn 0.008292 0.219739 0.975523
vn 0.008292 0.219739 0.975523
vn 0.008292 0.219739 0.975523
vn 0.008292 0.219739 0.975523
vn 0.008292 0.219739 0.975523
vn 0.008292 0.219739 0.975523
vn 0.008292 0.219739 0.975523
vn 0.008292 0.219739 0.975524
vn 0.008292 0.219739 0.975523
vn 0.008292 0.219739 0.975524
vn 0.008292 0.219739 0.975523
vn 0.008292 0.219739 0.975523
vn 0.008292 0.219739 0.975523
vn 0.008292 0.219739 0.975523
vn 0.008292 0.219739 0.975523
vn 0.008292 0.219739 0.975523
vn 0.008292 0.219739 0.975523
vn 0.008292 0.219739 0.975523
vn 0.008292 0.219739 0.975524
vn 0.008292 0.219739 0.975524
vn 0.008292 0.219739 0.975524
vn 0.008292 0.219739 0.975523
vn 0.008292 0.219739 0.975523
vn 0.008292 0.219739 0.975524
vn 0.008292 0.219739 0.975523
vn 0.008292 0.219739 0.975524
vn 0.008292 0.219739 0.975524
vn 0.008292 0.219739 0.975523
vn 0.008292 0.219739 0.975524
vn 0.008292 0.219739 0.975524
vn 0.008292 0.219739 0.975523
vn 0.008292 0.219739 0.975524
vn 0.008292 0.219739 0.975523
vn 0.008292 0.219739 0.975523
vn 0.008292 0.219739 0.975523
vn 0.008292 0.219739 0.975523
vn 0.008292 0.219739 0.975523
vn 0.008292 0.219739 0.975523
vn 0.008292 0.219739 0.975523
vn 0.008292 0.219739 0.975523
vn 0.008292 0.219739 0.975524
vn 0.008292 0.219739 0.975524
vn 0.008292 0.219739 0.975524
vn 0.008292 0.219739 0.975523
vn 0.008292 0.219739 0.975523
vn 0.008292 0.219739 0.975523
vn 0.008292 0.219739 0.975523
vn 0.008292 0.219739 0.975524
vn 0.008292 0.219739 0.975524
vn 0.008292 0.219739 0.975523
vn 0.008292 0.219739 0.975524
vn 0.008292 0.219739 0.975524
vn 0.008292 0.219739 0.975524
vn 0.008292 0.219739 0.975524
vn 0.008292 0.219739 0.975523
vn 0.008292 0.219739 0.975523
vn 0.008292 0.219739 0.975524
vn 0.008292 0.219739 0.975523
vn 0.008292 0.219739 0.975524
vn 0.008292 0.219739 0.975524
vn 0.008292 0.219739 0.975523
vn 0.008292 0.219739 0.975524
vn 0.008292 0.219739 0.975524
vn 0.008292 0.219739 0.975523
vn 0.008292 0.219739 0.975523
vn 0.008292 0.219739 0.975523
vn 0.008292 0.219739 0.975523
vn 0.008292 0.219739 0.975523
vn 0.008292 0.219739 0.975523
vn 0.008292 0.219739 0.975523
vn 0.008292 0.219739 0.975523
vn 0.008292 0.219739 0.975523
vn 0.008292 0.219739 0.975523
vn 0.008292 0.219739 0.975524
vn 0.008292 0.219739 0.975524
vn 0.008292 0.219739 0.975524
vn 0.008292 0.219739 0.975523
vn 0.008292 0.219739 0.975523
vn 0.008292 0.219739 0.975523
vn 0.008292 0.219739 0.975523
vn 0.008292 0.219739 0.975524
vn 0.008292 0.219739 0.975524
vn 0.008292 0.219739 0.975523
vn 0.008292 0.219739 0.975524
vn 0.008292 0.219739 0.975524
vn 0.008292 0.219739 0.975524
vn 0.008292 0.219739 0.975524
vn 0.008292 0.219739 0.975524
vn 0.008292 0.219739 0.975524
vn 0.008292 0.219739 0.975524
vn 0.008292 0.219739 0.975524
vn 0.008292 0.219739 0.975524
vn 0.008292 0.219739 0.975524
vn 0.008292 0.219739 0.975524
vn 0.008292 0.219739 0.975524
vn 0.008292 0.219739 0.975524
s 1
g pPlane3
usemtl pasted__phong3SG
f 43/43/43 44/44/44 55/55/45 54/54/46
f 44/44/44 45/45/47 56/56/48 55/55/45
f 45/45/47 46/46/49 57/57/50 56/56/48
f 46/46/49 47/47/51 58/58/52 57/57/50
f 47/47/51 48/48/53 59/59/54 58/58/52
f 48/48/53 49/49/55 60/60/56 59/59/54
f 49/49/55 50/50/57 61/61/58 60/60/56
f 50/50/57 51/51/59 62/62/60 61/61/58
f 51/51/59 52/52/61 63/63/62 62/62/60
f 52/52/61 53/53/63 64/64/64 63/63/62
f 54/54/46 55/55/45 66/66/65 65/65/66
f 55/55/45 56/56/48 67/67/67 66/66/65
f 56/56/48 57/57/50 68/68/68 67/67/67
f 57/57/50 58/58/52 69/69/69 68/68/68
f 58/58/52 59/59/54 70/70/70 69/69/69
f 59/59/54 60/60/56 71/71/71 70/70/70
f 60/60/56 61/61/58 72/72/72 71/71/71
f 61/61/58 62/62/60 73/73/73 72/72/72
f 62/62/60 63/63/62 74/74/74 73/73/73
f 63/63/62 64/64/64 75/75/75 74/74/74
f 65/65/66 66/66/65 77/77/76 76/76/77
f 66/66/65 67/67/67 78/78/78 77/77/76
f 67/67/67 68/68/68 79/79/79 78/78/78
f 68/68/68 69/69/69 80/80/80 79/79/79
f 69/69/69 70/70/70 81/81/81 80/80/80
f 70/70/70 71/71/71 82/82/82 81/81/81
f 71/71/71 72/72/72 83/83/83 82/82/82
f 72/72/72 73/73/73 84/84/84 83/83/83
f 73/73/73 74/74/74 85/85/85 84/84/84
f 74/74/74 75/75/75 86/86/86 85/85/85
f 76/76/77 77/77/76 88/88/87 87/87/88
f 77/77/76 78/78/78 89/89/89 88/88/87
f 78/78/78 79/79/79 90/90/90 89/89/89
f 79/79/79 80/80/80 91/91/91 90/90/90
f 80/80/80 81/81/81 92/92/92 91/91/91
f 81/81/81 82/82/82 93/93/93 92/92/92
f 82/82/82 83/83/83 94/94/94 93/93/93
f 83/83/83 84/84/84 95/95/95 94/94/94
f 84/84/84 85/85/85 96/96/96 95/95/95
f 85/85/85 86/86/86 97/97/97 96/96/96
f 87/87/88 88/88/87 99/99/98 98/98/99
f 88/88/87 89/89/89 100/100/100 99/99/98
f 89/89/89 90/90/90 101/101/101 100/100/100
f 90/90/90 91/91/91 102/102/102 101/101/101
f 91/91/91 92/92/92 103/103/103 102/102/102
f 92/92/92 93/93/93 104/104/104 103/103/103
f 93/93/93 94/94/94 105/105/105 104/104/104
f 94/94/94 95/95/95 106/106/106 105/105/105
f 95/95/95 96/96/96 107/107/107 106/106/106
f 96/96/96 97/97/97 108/108/108 107/107/107
f 98/98/99 99/99/98 110/110/109 109/109/110
f 99/99/98 100/100/100 111/111/111 110/110/109
f 100/100/100 101/101/101 112/112/112 111/111/111
f 101/101/101 102/102/102 113/113/113 112/112/112
f 102/102/102 103/103/103 114/114/114 113/113/113
f 103/103/103 104/104/104 115/115/115 114/114/114
f 104/104/104 105/105/105 116/116/116 115/115/115
f 105/105/105 106/106/106 117/117/117 116/116/116
f 106/106/106 107/107/107 118/118/118 117/117/117
f 107/107/107 108/108/108 119/119/119 118/118/118
f 109/109/110 110/110/109 121/121/120 120/120/121
f 110/110/109 111/111/111 122/122/122 121/121/120
f 111/111/111 112/112/112 123/123/123 122/122/122
f 112/112/112 113/113/113 124/124/124 123/123/123
f 113/113/113 114/114/114 125/125/125 124/124/124
f 114/114/114 115/115/115 126/126/126 125/125/125
f 115/115/115 116/116/116 127/127/127 126/126/126
f 116/116/116 117/117/117 128/128/128 127/127/127
f 117/117/117 118/118/118 129/129/129 128/128/128
f 118/118/118 119/119/119 130/130/130 129/129/129
f 120/120/121 121/121/120 132/132/131 131/131/132
f 121/121/120 122/122/122 133/133/133 132/132/131
f 122/122/122 123/123/123 134/134/134 133/133/133
f 123/123/123 124/124/124 135/135/135 134/134/134
f 124/124/124 125/125/125 136/136/136 135/135/135
f 125/125/125 126/126/126 137/137/137 136/136/136
f 126/126/126 127/127/127 138/138/138 137/137/137
f 127/127/127 128/128/128 139/139/139 138/138/138
f 128/128/128 129/129/129 140/140/140 139/139/139
f 129/129/129 130/130/130 141/141/141 140/140/140
f 131/131/132 132/132/131 143/143/142 142/142/143
f 132/132/131 133/133/133 144/144/144 143/143/142
f 133/133/133 134/134/134 145/145/145 144/144/144
f 134/134/134 135/135/135 146/146/146 145/145/145
f 135/135/135 136/136/136 147/147/147 146/146/146
f 136/136/136 137/137/137 148/148/148 147/147/147
f 137/137/137 138/138/138 149/149/149 148/148/148
f 138/138/138 139/139/139 150/150/150 149/149/149
f 139/139/139 140/140/140 151/151/151 150/150/150
f 140/140/140 141/141/141 152/152/152 151/151/151
f 142/142/143 143/143/142 154/154/153 153/153/154
f 143/143/142 144/144/144 155/155/155 154/154/153
f 144/144/144 145/145/145 156/156/156 155/155/155
f 145/145/145 146/146/146 157/157/157 156/156/156
f 146/146/146 147/147/147 158/158/158 157/157/157
f 147/147/147 148/148/148 159/159/159 158/158/158
f 148/148/148 149/149/149 160/160/160 159/159/159
f 149/149/149 150/150/150 161/161/161 160/160/160
f 150/150/150 151/151/151 162/162/162 161/161/161
f 151/151/151 152/152/152 163/163/163 162/162/162
