# This file uses centimeters as units for non-parametric coordinates.

mtllib HUD-041217-1.mtl
g default
v -1.417638 0.858502 0.494978
v -1.412064 0.803337 0.503750
v -1.406491 0.748172 0.512522
v -1.400917 0.693008 0.521295
v -1.395344 0.637843 0.530067
v -1.389770 0.582678 0.538839
v -1.384197 0.527513 0.547611
v -1.378623 0.472348 0.556383
v -1.373050 0.417183 0.565155
v -1.367476 0.362018 0.573928
v -1.361902 0.306854 0.582700
v -1.367188 0.858502 0.462924
v -1.361615 0.803337 0.471696
v -1.356041 0.748172 0.480469
v -1.350468 0.693008 0.489241
v -1.344894 0.637843 0.498013
v -1.339321 0.582678 0.506785
v -1.333747 0.527513 0.515557
v -1.328174 0.472348 0.524329
v -1.322600 0.417183 0.533102
v -1.317027 0.362018 0.541874
v -1.311453 0.306854 0.550646
v -1.316738 0.858502 0.430871
v -1.311165 0.803337 0.439643
v -1.305591 0.748172 0.448415
v -1.300018 0.693008 0.457187
v -1.294444 0.637843 0.465959
v -1.288871 0.582678 0.474731
v -1.283297 0.527513 0.483503
v -1.277724 0.472348 0.492276
v -1.272150 0.417183 0.501048
v -1.266577 0.362018 0.509820
v -1.261003 0.306854 0.518592
v -1.266289 0.858502 0.398817
v -1.260715 0.803337 0.407589
v -1.255142 0.748172 0.416361
v -1.249569 0.693008 0.425133
v -1.243995 0.637843 0.433905
v -1.238422 0.582678 0.442678
v -1.232848 0.527513 0.451450
v -1.227275 0.472348 0.460222
v -1.221701 0.417183 0.468994
v -1.216128 0.362018 0.477766
v -1.210554 0.306854 0.486538
v -1.215839 0.858502 0.366763
v -1.210266 0.803337 0.375535
v -1.204692 0.748172 0.384307
v -1.199119 0.693008 0.393079
v -1.176825 0.472348 0.428168
v -1.171251 0.417183 0.436940
v -1.165678 0.362018 0.445712
v -1.160104 0.306854 0.454485
v -1.165390 0.858502 0.334709
v -1.159816 0.803337 0.343481
v -1.154243 0.748172 0.352254
v -1.148669 0.693008 0.361026
v -1.126375 0.472348 0.396114
v -1.120802 0.417183 0.404886
v -1.115228 0.362018 0.413659
v -1.109655 0.306854 0.422431
v -1.114940 0.858502 0.302655
v -1.109367 0.803337 0.311428
v -1.103793 0.748172 0.320200
v -1.098220 0.693008 0.328972
v -1.075926 0.472348 0.364061
v -1.070352 0.417183 0.372833
v -1.064779 0.362018 0.381605
v -1.059205 0.306854 0.390377
v -1.064491 0.858502 0.270602
v -1.058917 0.803337 0.279374
v -1.053344 0.748172 0.288146
v -1.047770 0.693008 0.296918
v -1.042197 0.637843 0.305690
v -1.036623 0.582678 0.314462
v -1.031050 0.527513 0.323235
v -1.025476 0.472348 0.332007
v -1.019903 0.417183 0.340779
v -1.014329 0.362018 0.349551
v -1.008756 0.306854 0.358323
v -1.014041 0.858502 0.238548
v -1.008468 0.803337 0.247320
v -1.002894 0.748172 0.256092
v -0.997321 0.693008 0.264864
v -0.991747 0.637843 0.273637
v -0.986174 0.582678 0.282409
v -0.980600 0.527513 0.291181
v -0.975027 0.472348 0.299953
v -0.969453 0.417183 0.308725
v -0.963880 0.362018 0.317497
v -0.958306 0.306854 0.326269
v -0.963592 0.858502 0.206494
v -0.958018 0.803337 0.215266
v -0.952445 0.748172 0.224039
v -0.946871 0.693008 0.232811
v -0.941298 0.637843 0.241583
v -0.935724 0.582678 0.250355
v -0.930151 0.527513 0.259127
v -0.924577 0.472348 0.267899
v -0.919003 0.417183 0.276671
v -0.913430 0.362018 0.285444
v -0.907856 0.306854 0.294216
v -0.913142 0.858502 0.174440
v -0.907568 0.803337 0.183212
v -0.901995 0.748172 0.191985
v -0.896421 0.693008 0.200757
v -0.890848 0.637843 0.209529
v -0.885274 0.582678 0.218301
v -0.879701 0.527513 0.227073
v -0.874127 0.472348 0.235845
v -0.868554 0.417183 0.244618
v -0.862980 0.362018 0.253390
v -0.857407 0.306854 0.262162
v -1.216225 0.693008 0.473773
v -1.210651 0.637843 0.482545
v -1.160202 0.637843 0.450492
v -1.165775 0.693008 0.441720
v -1.205078 0.582678 0.491318
v -1.154628 0.582678 0.459264
v -1.199504 0.527513 0.500090
v -1.149055 0.527513 0.468036
v -1.193931 0.472348 0.508862
v -1.143481 0.472348 0.476808
v -1.109752 0.637843 0.418438
v -1.115325 0.693008 0.409666
v -1.104178 0.582678 0.427210
v -1.098605 0.527513 0.435982
v -1.093031 0.472348 0.444754
v -1.059302 0.637843 0.386384
v -1.064876 0.693008 0.377612
v -1.053729 0.582678 0.395156
v -1.048155 0.527513 0.403928
v -1.042582 0.472348 0.412701
v -1.008853 0.637843 0.354330
v -1.014426 0.693008 0.345558
v -1.003279 0.582678 0.363103
v -0.997706 0.527513 0.371875
v -0.992132 0.472348 0.380647
vt 0.941902 0.059039
vt 0.941902 0.053238
vt 0.941902 0.047437
vt 0.941902 0.041636
vt 0.941902 0.035835
vt 0.941902 0.030034
vt 0.941902 0.024234
vt 0.941902 0.018433
vt 0.941902 0.012632
vt 0.941902 0.006831
vt 0.941902 0.001030
vt 0.947703 0.059039
vt 0.947703 0.053238
vt 0.947703 0.047437
vt 0.947703 0.041636
vt 0.947703 0.035835
vt 0.947703 0.030034
vt 0.947703 0.024233
vt 0.947703 0.018433
vt 0.947703 0.012632
vt 0.947703 0.006831
vt 0.947703 0.001030
vt 0.953504 0.059039
vt 0.953504 0.053238
vt 0.953504 0.047437
vt 0.953504 0.041636
vt 0.953504 0.035835
vt 0.953504 0.030034
vt 0.953504 0.024233
vt 0.953504 0.018433
vt 0.953504 0.012632
vt 0.953504 0.006831
vt 0.953504 0.001030
vt 0.959305 0.059039
vt 0.959305 0.053238
vt 0.959305 0.047437
vt 0.959305 0.041636
vt 0.959305 0.035835
vt 0.959305 0.030034
vt 0.959305 0.024234
vt 0.959305 0.018433
vt 0.959305 0.012632
vt 0.959305 0.006831
vt 0.959305 0.001030
vt 0.965106 0.059039
vt 0.965106 0.053238
vt 0.965106 0.047437
vt 0.965106 0.041636
vt 0.965106 0.035835
vt 0.965106 0.030034
vt 0.965106 0.024233
vt 0.965106 0.018433
vt 0.965106 0.012632
vt 0.965106 0.006831
vt 0.965106 0.001030
vt 0.970907 0.059039
vt 0.970907 0.053238
vt 0.970907 0.047437
vt 0.970907 0.041636
vt 0.970907 0.035835
vt 0.970907 0.030034
vt 0.970907 0.024233
vt 0.970907 0.018433
vt 0.970907 0.012632
vt 0.970907 0.006831
vt 0.970907 0.001030
vt 0.976708 0.059039
vt 0.976708 0.053238
vt 0.976708 0.047437
vt 0.976708 0.041636
vt 0.976708 0.035835
vt 0.976708 0.030034
vt 0.976708 0.024234
vt 0.976708 0.018433
vt 0.976708 0.012632
vt 0.976708 0.006831
vt 0.976708 0.001030
vt 0.982508 0.059039
vt 0.982508 0.053238
vt 0.982508 0.047437
vt 0.982508 0.041636
vt 0.982508 0.035835
vt 0.982508 0.030034
vt 0.982508 0.024234
vt 0.982509 0.018433
vt 0.982508 0.012632
vt 0.982508 0.006831
vt 0.982508 0.001030
vt 0.988309 0.059039
vt 0.988309 0.053238
vt 0.988309 0.047437
vt 0.988309 0.041636
vt 0.988309 0.035835
vt 0.988309 0.030034
vt 0.988309 0.024233
vt 0.988309 0.018433
vt 0.988309 0.012632
vt 0.988309 0.006831
vt 0.988309 0.001030
vt 0.994110 0.059039
vt 0.994110 0.053238
vt 0.994110 0.047437
vt 0.994110 0.041636
vt 0.994110 0.035835
vt 0.994110 0.030034
vt 0.994110 0.024234
vt 0.994110 0.018433
vt 0.994110 0.012632
vt 0.994110 0.006831
vt 0.994110 0.001030
vt 0.999911 0.059039
vt 0.999911 0.053238
vt 0.999911 0.047437
vt 0.999911 0.041636
vt 0.999911 0.035835
vt 0.999911 0.030034
vt 0.999911 0.024234
vt 0.999911 0.018433
vt 0.999911 0.012632
vt 0.999911 0.006831
vt 0.999911 0.001030
vt 0.959305 0.041636
vt 0.959305 0.035835
vt 0.965106 0.041636
vt 0.959305 0.030034
vt 0.959305 0.024234
vt 0.959305 0.018433
vt 0.965106 0.018433
vt 0.970907 0.041636
vt 0.970907 0.018433
vt 0.976708 0.041636
vt 0.976708 0.018433
vt 0.982508 0.035835
vt 0.982508 0.041636
vt 0.982508 0.030034
vt 0.982508 0.024234
vt 0.982509 0.018433
vn 0.527003 0.185142 0.829452
vn 0.527004 0.185142 0.829451
vn 0.527003 0.185142 0.829452
vn 0.527002 0.185142 0.829452
vn 0.527004 0.185142 0.829451
vn 0.527003 0.185142 0.829452
vn 0.527002 0.185142 0.829453
vn 0.527003 0.185142 0.829452
vn 0.527002 0.185141 0.829453
vn 0.527003 0.185142 0.829452
vn 0.527003 0.185142 0.829452
vn 0.527003 0.185142 0.829452
vn 0.527003 0.185143 0.829452
vn 0.527003 0.185142 0.829452
vn 0.527002 0.185142 0.829452
vn 0.527003 0.185142 0.829452
vn 0.527002 0.185142 0.829453
vn 0.527003 0.185142 0.829452
vn 0.527003 0.185142 0.829452
vn 0.527003 0.185142 0.829452
vn 0.527003 0.185143 0.829452
vn 0.527002 0.185143 0.829452
vn 0.527002 0.185142 0.829452
vn 0.527003 0.185142 0.829452
vn 0.527002 0.185142 0.829452
vn 0.527003 0.185142 0.829452
vn 0.527003 0.185142 0.829452
vn 0.527003 0.185142 0.829452
vn 0.527003 0.185142 0.829452
vn 0.527003 0.185142 0.829452
vn 0.527003 0.185142 0.829452
vn 0.527003 0.185142 0.829452
vn 0.527003 0.185143 0.829452
vn 0.527003 0.185142 0.829452
vn 0.527003 0.185142 0.829452
vn 0.527003 0.185142 0.829452
vn 0.527003 0.185142 0.829452
vn 0.527003 0.185142 0.829452
vn 0.527003 0.185142 0.829452
vn 0.527003 0.185142 0.829452
vn 0.527003 0.185142 0.829452
vn 0.527002 0.185142 0.829452
vn 0.527003 0.185142 0.829452
vn 0.527003 0.185143 0.829452
vn 0.527003 0.185142 0.829452
vn 0.527003 0.185142 0.829452
vn 0.527003 0.185142 0.829452
vn 0.527003 0.185142 0.829452
vn 0.527003 0.185141 0.829452
vn 0.527002 0.185142 0.829452
vn 0.527002 0.185142 0.829452
vn 0.527003 0.185142 0.829452
vn 0.527002 0.185142 0.829452
vn 0.527003 0.185141 0.829452
vn 0.527003 0.185142 0.829452
vn 0.527003 0.185142 0.829452
vn 0.527003 0.185143 0.829452
vn 0.527003 0.185143 0.829452
vn 0.527003 0.185142 0.829452
vn 0.527003 0.185141 0.829452
vn 0.527003 0.185142 0.829452
vn 0.527003 0.185142 0.829452
vn 0.527003 0.185142 0.829452
vn 0.527003 0.185142 0.829452
vn 0.527003 0.185142 0.829452
vn 0.527003 0.185142 0.829452
vn 0.527003 0.185142 0.829452
vn 0.527003 0.185142 0.829452
vn 0.527003 0.185142 0.829452
vn 0.527003 0.185142 0.829452
vn 0.527002 0.185142 0.829452
vn 0.527003 0.185142 0.829452
vn 0.527003 0.185142 0.829452
vn 0.527003 0.185142 0.829452
vn 0.527003 0.185142 0.829452
vn 0.527003 0.185142 0.829452
vn 0.527002 0.185142 0.829452
vn 0.527003 0.185142 0.829452
vn 0.527003 0.185143 0.829452
vn 0.527003 0.185142 0.829452
vn 0.527003 0.185142 0.829452
vn 0.527003 0.185142 0.829452
vn 0.527002 0.185142 0.829452
vn 0.527003 0.185143 0.829452
vn 0.527003 0.185142 0.829452
vn 0.527002 0.185141 0.829452
vn 0.527003 0.185142 0.829452
vn 0.527003 0.185142 0.829452
vn 0.527003 0.185142 0.829452
vn 0.527003 0.185143 0.829452
vn 0.527003 0.185142 0.829452
vn 0.527003 0.185142 0.829452
vn 0.527002 0.185142 0.829452
vn 0.527002 0.185141 0.829453
vn 0.527003 0.185142 0.829452
vn 0.527003 0.185142 0.829452
vn 0.527003 0.185143 0.829452
vn 0.527003 0.185142 0.829452
vn 0.527003 0.185142 0.829452
vn 0.527003 0.185142 0.829452
vn 0.527002 0.185141 0.829452
vn 0.527003 0.185142 0.829452
vn 0.527003 0.185142 0.829452
vn 0.527003 0.185142 0.829452
vn 0.527003 0.185142 0.829452
vn 0.527004 0.185142 0.829451
vn 0.527003 0.185142 0.829452
vn 0.527003 0.185142 0.829452
vn 0.527003 0.185142 0.829452
vn 0.527003 0.185142 0.829452
vn 0.527003 0.185142 0.829452
vn 0.527003 0.185142 0.829452
vn 0.527003 0.185142 0.829452
vn 0.527002 0.185142 0.829452
vn 0.527002 0.185142 0.829452
vn 0.527003 0.185142 0.829452
vn 0.527003 0.185142 0.829452
vn 0.527003 0.185142 0.829452
vn 0.527003 0.185142 0.829452
vn 0.527002 0.185142 0.829452
vn 0.527003 0.185142 0.829452
vn 0.527003 0.185142 0.829452
vn 0.527003 0.185142 0.829452
vn 0.527002 0.185142 0.829452
vn 0.527003 0.185142 0.829452
vn 0.527003 0.185142 0.829452
vn 0.527004 0.185142 0.829451
vn 0.527003 0.185142 0.829452
vn 0.527003 0.185142 0.829452
vn 0.527003 0.185142 0.829452
vn 0.527003 0.185142 0.829452
vn 0.527003 0.185142 0.829452
vn 0.527003 0.185142 0.829452
vn 0.527003 0.185142 0.829452
vn 0.527003 0.185142 0.829452
vn 0.527003 0.185142 0.829452
vn 0.527003 0.185142 0.829452
vn -0.824784 0.006577 0.565410
vn -0.824784 0.006577 0.565410
vn -0.824784 0.006577 0.565410
vn -0.824784 0.006577 0.565410
vn 0.000000 1.000000 0.000000
vn 0.000000 1.000000 0.000000
vn 0.000000 1.000000 0.000000
vn 0.000000 1.000000 0.000000
vn -0.824787 0.006580 0.565405
vn -0.824787 0.006580 0.565405
vn -0.824787 0.006580 0.565405
vn -0.824787 0.006580 0.565405
vn -0.824785 0.006577 0.565408
vn -0.824785 0.006577 0.565408
vn -0.824785 0.006577 0.565408
vn -0.824785 0.006577 0.565408
vn -0.824783 0.006580 0.565411
vn -0.824783 0.006580 0.565411
vn -0.824783 0.006580 0.565411
vn -0.824783 0.006580 0.565411
vn 0.000000 -1.000000 -0.000000
vn 0.000000 -1.000000 -0.000000
vn 0.000000 -1.000000 -0.000000
vn 0.000000 -1.000000 -0.000000
vn 0.000000 1.000000 0.000000
vn 0.000000 1.000000 0.000000
vn 0.000000 1.000000 0.000000
vn 0.000000 1.000000 0.000000
vn 0.000000 -1.000000 0.000000
vn 0.000000 -1.000000 0.000000
vn 0.000000 -1.000000 0.000000
vn 0.000000 -1.000000 0.000000
vn 0.000001 1.000000 -0.000000
vn 0.000001 1.000000 -0.000000
vn 0.000001 1.000000 -0.000000
vn 0.000001 1.000000 -0.000000
vn 0.000000 -1.000000 0.000000
vn 0.000000 -1.000000 0.000000
vn 0.000000 -1.000000 0.000000
vn 0.000000 -1.000000 0.000000
vn 0.824783 -0.006583 -0.565410
vn 0.824783 -0.006583 -0.565410
vn 0.824784 -0.006583 -0.565410
vn 0.824783 -0.006583 -0.565410
vn 0.000000 1.000000 0.000000
vn 0.000000 1.000000 0.000000
vn 0.000000 1.000000 0.000000
vn 0.000000 1.000000 0.000000
vn 0.824786 -0.006575 -0.565407
vn 0.824786 -0.006575 -0.565407
vn 0.824786 -0.006575 -0.565407
vn 0.824786 -0.006575 -0.565407
vn 0.824785 -0.006581 -0.565408
vn 0.824785 -0.006581 -0.565408
vn 0.824785 -0.006581 -0.565408
vn 0.824785 -0.006581 -0.565408
vn 0.000000 -1.000000 0.000000
vn 0.000000 -1.000000 0.000000
vn 0.000000 -1.000000 0.000000
vn 0.000000 -1.000000 0.000000
vn 0.824786 -0.006575 -0.565407
vn 0.824786 -0.006575 -0.565407
vn 0.824786 -0.006575 -0.565407
vn 0.824786 -0.006575 -0.565407
s 1
g pasted__pPlane1 group
usemtl pasted__phong3SG
f 1/1/1 2/2/2 13/13/3 12/12/4
f 2/2/2 3/3/5 14/14/6 13/13/3
f 3/3/5 4/4/7 15/15/8 14/14/6
f 4/4/7 5/5/9 16/16/10 15/15/8
f 5/5/9 6/6/11 17/17/12 16/16/10
f 6/6/11 7/7/13 18/18/14 17/17/12
f 7/7/13 8/8/15 19/19/16 18/18/14
f 8/8/15 9/9/17 20/20/18 19/19/16
f 9/9/17 10/10/19 21/21/20 20/20/18
f 10/10/19 11/11/21 22/22/22 21/21/20
f 12/12/4 13/13/3 24/24/23 23/23/24
f 13/13/3 14/14/6 25/25/25 24/24/23
f 14/14/6 15/15/8 26/26/26 25/25/25
f 15/15/8 16/16/10 27/27/27 26/26/26
f 16/16/10 17/17/12 28/28/28 27/27/27
f 17/17/12 18/18/14 29/29/29 28/28/28
f 18/18/14 19/19/16 30/30/30 29/29/29
f 19/19/16 20/20/18 31/31/31 30/30/30
f 20/20/18 21/21/20 32/32/32 31/31/31
f 21/21/20 22/22/22 33/33/33 32/32/32
f 23/23/24 24/24/23 35/35/34 34/34/35
f 24/24/23 25/25/25 36/36/36 35/35/34
f 25/25/25 26/26/26 37/37/37 36/36/36
f 26/26/26 27/27/27 38/38/38 37/37/37
f 27/27/27 28/28/28 39/39/39 38/38/38
f 28/28/28 29/29/29 40/40/40 39/39/39
f 29/29/29 30/30/30 41/41/41 40/40/40
f 30/30/30 31/31/31 42/42/42 41/41/41
f 31/31/31 32/32/32 43/43/43 42/42/42
f 32/32/32 33/33/33 44/44/44 43/43/43
f 34/34/35 35/35/34 46/46/45 45/45/46
f 35/35/34 36/36/36 47/47/47 46/46/45
f 36/36/36 37/37/37 48/48/48 47/47/47
s 2
f 113/122/49 114/123/50 115/49/51 116/124/52
f 114/123/50 117/125/53 118/50/54 115/49/51
f 117/125/53 119/126/55 120/51/56 118/50/54
f 119/126/55 121/127/57 122/128/58 120/51/56
s 1
f 41/41/41 42/42/42 50/53/59 49/52/60
f 42/42/42 43/43/43 51/54/61 50/53/59
f 43/43/43 44/44/44 52/55/62 51/54/61
f 45/45/46 46/46/45 54/57/63 53/56/64
f 46/46/45 47/47/47 55/58/65 54/57/63
f 47/47/47 48/48/48 56/59/66 55/58/65
s 2
f 116/124/52 115/49/51 123/60/67 124/129/68
f 115/49/51 118/50/54 125/61/69 123/60/67
f 118/50/54 120/51/56 126/62/70 125/61/69
f 120/51/56 122/128/58 127/130/71 126/62/70
s 1
f 49/52/60 50/53/59 58/64/72 57/63/73
f 50/53/59 51/54/61 59/65/74 58/64/72
f 51/54/61 52/55/62 60/66/75 59/65/74
f 53/56/64 54/57/63 62/68/76 61/67/77
f 54/57/63 55/58/65 63/69/78 62/68/76
f 55/58/65 56/59/66 64/70/79 63/69/78
s 2
f 124/129/68 123/60/67 128/71/80 129/131/81
f 123/60/67 125/61/69 130/72/82 128/71/80
f 125/61/69 126/62/70 131/73/83 130/72/82
f 126/62/70 127/130/71 132/132/84 131/73/83
s 1
f 57/63/73 58/64/72 66/75/85 65/74/86
f 58/64/72 59/65/74 67/76/87 66/75/85
f 59/65/74 60/66/75 68/77/88 67/76/87
f 61/67/77 62/68/76 70/79/89 69/78/90
f 62/68/76 63/69/78 71/80/91 70/79/89
f 63/69/78 64/70/79 72/81/92 71/80/91
s 2
f 129/131/81 128/71/80 133/133/93 134/134/94
f 128/71/80 130/72/82 135/135/95 133/133/93
f 130/72/82 131/73/83 136/136/96 135/135/95
f 131/73/83 132/132/84 137/137/97 136/136/96
s 1
f 65/74/86 66/75/85 77/86/98 76/85/99
f 66/75/85 67/76/87 78/87/100 77/86/98
f 67/76/87 68/77/88 79/88/101 78/87/100
f 69/78/90 70/79/89 81/90/102 80/89/103
f 70/79/89 71/80/91 82/91/104 81/90/102
f 71/80/91 72/81/92 83/92/105 82/91/104
f 72/81/92 73/82/106 84/93/107 83/92/105
f 73/82/106 74/83/108 85/94/109 84/93/107
f 74/83/108 75/84/110 86/95/111 85/94/109
f 75/84/110 76/85/99 87/96/112 86/95/111
f 76/85/99 77/86/98 88/97/113 87/96/112
f 77/86/98 78/87/100 89/98/114 88/97/113
f 78/87/100 79/88/101 90/99/115 89/98/114
f 80/89/103 81/90/102 92/101/116 91/100/117
f 81/90/102 82/91/104 93/102/118 92/101/116
f 82/91/104 83/92/105 94/103/119 93/102/118
f 83/92/105 84/93/107 95/104/120 94/103/119
f 84/93/107 85/94/109 96/105/121 95/104/120
f 85/94/109 86/95/111 97/106/122 96/105/121
f 86/95/111 87/96/112 98/107/123 97/106/122
f 87/96/112 88/97/113 99/108/124 98/107/123
f 88/97/113 89/98/114 100/109/125 99/108/124
f 89/98/114 90/99/115 101/110/126 100/109/125
f 91/100/117 92/101/116 103/112/127 102/111/128
f 92/101/116 93/102/118 104/113/129 103/112/127
f 93/102/118 94/103/119 105/114/130 104/113/129
f 94/103/119 95/104/120 106/115/131 105/114/130
f 95/104/120 96/105/121 107/116/132 106/115/131
f 96/105/121 97/106/122 108/117/133 107/116/132
f 97/106/122 98/107/123 109/118/134 108/117/133
f 98/107/123 99/108/124 110/119/135 109/118/134
f 99/108/124 100/109/125 111/120/136 110/119/135
f 100/109/125 101/110/126 112/121/137 111/120/136
s off
f 37/37/138 38/38/139 114/123/140 113/122/141
f 48/48/142 37/37/143 113/122/144 116/124/145
f 38/38/146 39/39/147 117/125/148 114/123/149
f 39/39/150 40/40/151 119/126/152 117/125/153
f 40/40/154 41/41/155 121/127/156 119/126/157
f 41/41/158 49/52/159 122/128/160 121/127/161
f 56/59/162 48/48/163 116/124/164 124/129/165
f 49/52/166 57/63/167 127/130/168 122/128/169
f 64/70/170 56/59/171 124/129/172 129/131/173
f 57/63/174 65/74/175 132/132/176 127/130/177
f 73/82/178 72/81/179 134/134/180 133/133/181
f 72/81/182 64/70/183 129/131/184 134/134/185
f 74/83/186 73/82/187 133/133/188 135/135/189
f 75/84/190 74/83/191 135/135/192 136/136/193
f 65/74/194 76/85/195 137/137/196 132/132/197
f 76/85/198 75/84/199 136/136/200 137/137/201
